<svg xmlns="http://www.w3.org/2000/svg" width="150" height="100" viewBox="0 0 150 100" fill="none"><script xmlns=""/>
<path d="M60 85C40 85 20 85 0 85C0 84.4 0 84 0 83.4C0 65.7 0 48 0 30.2C0 13.5 13.9 2.26507e-05 30.5 0.400023C45.3 0.700023 57.5 11.4 59.6 26.1C60 28.9 59.9 31.7 59.9 34.5C59.9 50.9 59.9 67.4 59.9 83.8C60 84.2 60 84.6 60 85ZM19.1 46.8C19.6 46.4 19.9 46.1 20.3 45.8C21.5 45 22.2 45.1 22.4 46.5C22.7 48.5 22.7 50.4 22.5 52.3C22.3 54.5 21.7 56.5 21.2 58.9C22.2 58.9 23.2 58.9 24 58.9C26 58.9 26.8 59.8 26.8 61.7C26.8 66.6 26.8 71.4 26.8 76.3C26.8 78.8 26.4 79.3 24 79.9C24.5 82.1 24.5 82.1 26.6 82.1C34.6 82.1 42.5 82.1 50.5 82.1C52.7 82.1 54.7 82.1 57.1 82.1C57.1 80 57.1 78.1 57.1 76.1C57.1 62.3 57.1 48.5 57.1 34.7C57.1 30.9 57.1 27 56.1 23.2C52.3 8.80002 37.1 0.200024 22.8 4.20002C10.8 7.60002 2.8 18 2.7 30.4C2.6 47.2 2.7 64 2.7 80.8C2.7 81.2 2.8 81.6 2.8 82C3 82.1 3.1 82.2 3.1 82.2C5.4 82.2 7.8 82.2 10.1 82.2C12.2 82.2 12.3 82.1 12.5 80C10.2 79.4 9.8 79 9.8 76.5C9.8 71.6 9.8 66.8 9.8 61.9C9.8 59.8 10.6 59 12.8 59C13.7 59 14.7 59 15.8 59C15.3 56.8 14.9 54.7 14.5 52.5C14.4 52 14.7 51.5 14.8 51C13.7 48.1 13.6 45.2 15 42.2C17 43.2 18.3 44.8 19.1 46.8ZM25.3 65.6C25.3 64.2 25.4 62.8 25.2 61.4C25.2 61.1 24.5 60.6 24.3 60.6C20.4 60.5 16.5 60.5 12.6 60.6C12.2 60.6 11.7 61.2 11.7 61.5C11.6 62.8 11.6 64.1 11.6 65.5C16.2 65.6 20.7 65.6 25.3 65.6ZM11.5 73.3C11.5 74.6 11.5 75.7 11.5 77C11.5 77.7 11.8 78.1 12.6 78.1C16.4 78.1 20.3 78.1 24.2 78C24.6 78 25.1 77.5 25.1 77.2C25.2 75.9 25.2 74.6 25.2 73.3C20.6 73.3 16.2 73.3 11.5 73.3ZM11.6 71.6C16.2 71.6 20.7 71.6 25.3 71.6C25.3 70.1 25.3 68.7 25.3 67.3C20.7 67.3 16.2 67.3 11.6 67.3C11.6 68.7 11.6 70.2 11.6 71.6ZM16.8 57.7C17.8 57.7 18.9 57.7 19.9 57.7C20.2 57.7 20.6 57.4 20.6 57.2C21 55.6 21.3 54.1 21.6 52.4C19.6 52.4 17.8 52.4 15.8 52.4C16 54.2 16.4 55.9 16.8 57.7ZM22.8 82.1C22.5 79.9 22.4 79.8 20.4 79.8C19.2 79.8 18 79.8 16.8 79.8C14.6 79.8 14.6 80 14.3 82.1C17 82.1 19.9 82.1 22.8 82.1ZM18.6 51.1C18.6 48.2 17.9 45.8 15.5 43.8C14.8 45.8 14.9 47.6 15.6 49.4C16.4 51.3 16.5 51.3 18.6 51.1ZM21.3 46.6C19.3 47.7 19.8 49.5 19.9 51.1C21.3 51.2 22.1 48.9 21.3 46.6Z" fill="#ffffff"/>
<path d="M30.1001 24.3001C34.3001 24.3001 37.6001 27.6001 37.6001 31.8001C37.6001 36.0001 34.2001 39.4001 30.0001 39.4001C25.9001 39.4001 22.6001 36.0001 22.6001 31.8001C22.5001 27.5001 25.7001 24.2001 30.1001 24.3001ZM29.2001 31.0001C29.2001 29.2001 29.2001 27.5001 29.2001 25.9001C26.6001 26.1001 24.1001 28.5001 24.1001 31.0001C24.4001 31.0001 24.6001 31.1001 24.8001 31.1001C26.2001 31.0001 27.6001 31.0001 29.2001 31.0001ZM36.0001 30.9001C36.1001 28.5001 33.0001 25.6001 30.9001 25.8001C30.9001 27.5001 30.9001 29.2001 30.9001 30.9001C32.6001 30.9001 34.2001 30.9001 36.0001 30.9001ZM30.8001 37.7001C33.7001 37.2001 36.0001 34.9001 35.9001 32.6001C34.2001 32.6001 32.5001 32.6001 30.8001 32.6001C30.8001 34.1001 30.8001 35.4001 30.8001 36.8001C30.7001 37.0001 30.8001 37.3001 30.8001 37.7001ZM24.1001 32.5001C24.3001 35.2001 26.6001 37.6001 29.2001 37.6001C29.2001 35.9001 29.2001 34.2001 29.2001 32.5001C27.4001 32.5001 25.7001 32.5001 24.1001 32.5001Z" fill="#ffffff"/>
<script xmlns=""/></svg>