<svg xmlns="http://www.w3.org/2000/svg" xmlns:xlink="http://www.w3.org/1999/xlink" width="150" zoomAndPan="magnify" viewBox="0 0 112.5 112.499997" height="150" preserveAspectRatio="xMidYMid meet" version="1.0"><defs><g/></defs><path stroke-linecap="butt" transform="matrix(-0.00733733, -0.746645, 0.746645, -0.00733733, 0.641077, 93.256494)" fill="none" stroke-linejoin="miter" d="M -0.000472455 1.997913 L 73.908198 2.002239 " stroke="#ffa62b" stroke-width="4" stroke-opacity="1" stroke-miterlimit="4"/><path stroke-linecap="butt" transform="matrix(-0.746674, -0.00330751, 0.00330751, -0.746674, 67.000193, 93.866854)" fill="none" stroke-linejoin="miter" d="M -0.00135348 1.998005 L 88.317398 1.999149 " stroke="#ffa62b" stroke-width="4" stroke-opacity="1" stroke-miterlimit="4"/><path stroke-linecap="butt" transform="matrix(0.525902, -0.530057, 0.530057, 0.525902, -0.00115059, 38.140099)" fill="none" stroke-linejoin="miter" d="M 0.000124407 1.999181 L 62.273208 2.00003 " stroke="#ffa62b" stroke-width="4" stroke-opacity="1" stroke-miterlimit="4"/><path stroke-linecap="butt" transform="matrix(0.525902, 0.530057, -0.530057, 0.525902, 33.670887, 4.163698)" fill="none" stroke-linejoin="miter" d="M -0.00194578 2.000708 L 62.26374 1.999887 " stroke="#ffa62b" stroke-width="4" stroke-opacity="1" stroke-miterlimit="4"/><g fill="#ffa62b" fill-opacity="1"><g transform="translate(9.919206, 60.050702)"><g><path d="M 7.40625 -9.390625 C 7.394531 -9.390625 7.367188 -9.375 7.328125 -9.34375 C 7.296875 -9.320312 7.257812 -9.273438 7.21875 -9.203125 C 7.1875 -9.128906 7.15625 -9.023438 7.125 -8.890625 C 7.101562 -8.753906 7.09375 -8.570312 7.09375 -8.34375 L 7.09375 -1.171875 C 7.09375 -0.953125 7.101562 -0.769531 7.125 -0.625 C 7.15625 -0.488281 7.1875 -0.382812 7.21875 -0.3125 C 7.257812 -0.238281 7.296875 -0.1875 7.328125 -0.15625 C 7.367188 -0.132812 7.394531 -0.125 7.40625 -0.125 L 7.40625 0 L 5.8125 0 L 5.8125 -0.125 C 5.832031 -0.125 5.859375 -0.132812 5.890625 -0.15625 C 5.929688 -0.1875 5.96875 -0.238281 6 -0.3125 C 6.03125 -0.382812 6.054688 -0.488281 6.078125 -0.625 C 6.109375 -0.769531 6.125 -0.953125 6.125 -1.171875 L 6.125 -5.578125 L 1.6875 -5.578125 L 1.6875 -1.171875 C 1.6875 -0.953125 1.695312 -0.769531 1.71875 -0.625 C 1.738281 -0.488281 1.765625 -0.382812 1.796875 -0.3125 C 1.835938 -0.238281 1.875 -0.1875 1.90625 -0.15625 C 1.945312 -0.132812 1.972656 -0.125 1.984375 -0.125 L 1.984375 0 L 0.40625 0 L 0.40625 -0.125 C 0.425781 -0.125 0.453125 -0.132812 0.484375 -0.15625 C 0.523438 -0.1875 0.5625 -0.238281 0.59375 -0.3125 C 0.625 -0.382812 0.648438 -0.488281 0.671875 -0.625 C 0.703125 -0.769531 0.71875 -0.953125 0.71875 -1.171875 L 0.71875 -8.34375 C 0.71875 -8.570312 0.703125 -8.753906 0.671875 -8.890625 C 0.648438 -9.023438 0.625 -9.128906 0.59375 -9.203125 C 0.5625 -9.273438 0.523438 -9.320312 0.484375 -9.34375 C 0.453125 -9.375 0.425781 -9.390625 0.40625 -9.390625 L 0.40625 -9.515625 L 1.984375 -9.515625 L 1.984375 -9.390625 C 1.972656 -9.390625 1.945312 -9.375 1.90625 -9.34375 C 1.875 -9.320312 1.835938 -9.273438 1.796875 -9.203125 C 1.765625 -9.128906 1.738281 -9.023438 1.71875 -8.890625 C 1.695312 -8.753906 1.6875 -8.570312 1.6875 -8.34375 L 1.6875 -5.703125 L 6.125 -5.703125 L 6.125 -8.34375 C 6.125 -8.570312 6.109375 -8.753906 6.078125 -8.890625 C 6.054688 -9.023438 6.03125 -9.128906 6 -9.203125 C 5.96875 -9.273438 5.929688 -9.320312 5.890625 -9.34375 C 5.859375 -9.375 5.832031 -9.390625 5.8125 -9.390625 L 5.8125 -9.515625 L 7.40625 -9.515625 Z M 7.40625 -9.390625 "/></g></g></g><g fill="#ffa62b" fill-opacity="1"><g transform="translate(17.734796, 60.050702)"><g><path d="M 6.234375 -1.78125 C 6.128906 -2.070312 5.992188 -2.359375 5.828125 -2.640625 C 5.660156 -2.929688 5.460938 -3.1875 5.234375 -3.40625 C 5.015625 -3.632812 4.765625 -3.820312 4.484375 -3.96875 C 4.203125 -4.125 3.894531 -4.21875 3.5625 -4.25 C 3.4375 -4.257812 3.304688 -4.257812 3.171875 -4.25 C 3.035156 -4.238281 2.90625 -4.207031 2.78125 -4.15625 C 2.65625 -4.113281 2.539062 -4.050781 2.4375 -3.96875 C 2.332031 -3.882812 2.253906 -3.773438 2.203125 -3.640625 L 1.546875 -1.671875 C 1.359375 -1.148438 1.265625 -0.757812 1.265625 -0.5 C 1.273438 -0.25 1.375 -0.125 1.5625 -0.125 L 1.5625 0 L 0.40625 0 L 0.40625 -0.125 C 0.457031 -0.125 0.519531 -0.144531 0.59375 -0.1875 C 0.664062 -0.238281 0.742188 -0.328125 0.828125 -0.453125 C 0.921875 -0.578125 1.015625 -0.738281 1.109375 -0.9375 C 1.210938 -1.144531 1.316406 -1.398438 1.421875 -1.703125 L 3.828125 -8.765625 L 3.578125 -9.515625 L 4.609375 -9.515625 L 7.1875 -1.96875 C 7.28125 -1.707031 7.367188 -1.460938 7.453125 -1.234375 C 7.546875 -1.015625 7.628906 -0.820312 7.703125 -0.65625 C 7.773438 -0.488281 7.84375 -0.359375 7.90625 -0.265625 C 7.96875 -0.171875 8.03125 -0.125 8.09375 -0.125 L 8.09375 0 L 6.5 0 L 6.5 -0.125 C 6.539062 -0.125 6.554688 -0.25 6.546875 -0.5 C 6.535156 -0.75 6.46875 -1.066406 6.34375 -1.453125 Z M 2.359375 -4.046875 C 2.515625 -4.191406 2.703125 -4.285156 2.921875 -4.328125 C 3.148438 -4.367188 3.363281 -4.378906 3.5625 -4.359375 C 4.070312 -4.316406 4.519531 -4.144531 4.90625 -3.84375 C 5.300781 -3.550781 5.628906 -3.195312 5.890625 -2.78125 L 3.90625 -8.578125 Z M 2.359375 -4.046875 "/></g></g></g><g fill="#ffa62b" fill-opacity="1"><g transform="translate(26.227647, 60.050702)"><g><path d="M 2 0 L 0.40625 0 L 0.40625 -0.125 C 0.425781 -0.125 0.453125 -0.132812 0.484375 -0.15625 C 0.523438 -0.1875 0.5625 -0.238281 0.59375 -0.3125 C 0.625 -0.382812 0.648438 -0.488281 0.671875 -0.625 C 0.703125 -0.769531 0.71875 -0.953125 0.71875 -1.171875 L 0.71875 -8.34375 C 0.71875 -8.570312 0.703125 -8.753906 0.671875 -8.890625 C 0.648438 -9.023438 0.625 -9.128906 0.59375 -9.203125 C 0.5625 -9.273438 0.523438 -9.320312 0.484375 -9.34375 C 0.453125 -9.375 0.425781 -9.390625 0.40625 -9.390625 L 0.40625 -9.515625 L 0.53125 -9.515625 C 0.9375 -9.523438 1.359375 -9.550781 1.796875 -9.59375 C 2.234375 -9.632812 2.648438 -9.65625 3.046875 -9.65625 C 3.734375 -9.65625 4.3125 -9.597656 4.78125 -9.484375 C 5.25 -9.367188 5.628906 -9.210938 5.921875 -9.015625 C 6.210938 -8.816406 6.421875 -8.578125 6.546875 -8.296875 C 6.671875 -8.023438 6.734375 -7.726562 6.734375 -7.40625 C 6.734375 -7.082031 6.671875 -6.78125 6.546875 -6.5 C 6.421875 -6.226562 6.210938 -5.992188 5.921875 -5.796875 C 5.628906 -5.609375 5.25 -5.457031 4.78125 -5.34375 C 4.3125 -5.226562 3.734375 -5.171875 3.046875 -5.171875 L 1.6875 -5.171875 L 1.6875 -1.171875 C 1.6875 -0.953125 1.695312 -0.769531 1.71875 -0.625 C 1.75 -0.488281 1.78125 -0.382812 1.8125 -0.3125 C 1.84375 -0.238281 1.875 -0.1875 1.90625 -0.15625 C 1.945312 -0.132812 1.976562 -0.125 2 -0.125 Z M 3.046875 -5.296875 L 3.046875 -5.28125 C 3.335938 -5.28125 3.640625 -5.3125 3.953125 -5.375 C 4.273438 -5.4375 4.570312 -5.546875 4.84375 -5.703125 C 5.113281 -5.867188 5.335938 -6.085938 5.515625 -6.359375 C 5.691406 -6.640625 5.78125 -6.988281 5.78125 -7.40625 C 5.78125 -7.820312 5.691406 -8.164062 5.515625 -8.4375 C 5.335938 -8.71875 5.113281 -8.9375 4.84375 -9.09375 C 4.570312 -9.257812 4.273438 -9.375 3.953125 -9.4375 C 3.640625 -9.507812 3.335938 -9.546875 3.046875 -9.546875 C 2.828125 -9.546875 2.601562 -9.535156 2.375 -9.515625 C 2.144531 -9.503906 1.914062 -9.488281 1.6875 -9.46875 L 1.6875 -5.296875 Z M 3.046875 -5.296875 "/></g></g></g><g fill="#ffa62b" fill-opacity="1"><g transform="translate(33.365976, 60.050702)"><g><path d="M 2 0 L 0.40625 0 L 0.40625 -0.125 C 0.425781 -0.125 0.453125 -0.132812 0.484375 -0.15625 C 0.523438 -0.1875 0.5625 -0.238281 0.59375 -0.3125 C 0.625 -0.382812 0.648438 -0.488281 0.671875 -0.625 C 0.703125 -0.769531 0.71875 -0.953125 0.71875 -1.171875 L 0.71875 -8.34375 C 0.71875 -8.570312 0.703125 -8.753906 0.671875 -8.890625 C 0.648438 -9.023438 0.625 -9.128906 0.59375 -9.203125 C 0.5625 -9.273438 0.523438 -9.320312 0.484375 -9.34375 C 0.453125 -9.375 0.425781 -9.390625 0.40625 -9.390625 L 0.40625 -9.515625 L 0.53125 -9.515625 C 0.9375 -9.523438 1.359375 -9.550781 1.796875 -9.59375 C 2.234375 -9.632812 2.648438 -9.65625 3.046875 -9.65625 C 3.734375 -9.65625 4.3125 -9.597656 4.78125 -9.484375 C 5.25 -9.367188 5.628906 -9.210938 5.921875 -9.015625 C 6.210938 -8.816406 6.421875 -8.578125 6.546875 -8.296875 C 6.671875 -8.023438 6.734375 -7.726562 6.734375 -7.40625 C 6.734375 -7.082031 6.671875 -6.78125 6.546875 -6.5 C 6.421875 -6.226562 6.210938 -5.992188 5.921875 -5.796875 C 5.628906 -5.609375 5.25 -5.457031 4.78125 -5.34375 C 4.3125 -5.226562 3.734375 -5.171875 3.046875 -5.171875 L 1.6875 -5.171875 L 1.6875 -1.171875 C 1.6875 -0.953125 1.695312 -0.769531 1.71875 -0.625 C 1.75 -0.488281 1.78125 -0.382812 1.8125 -0.3125 C 1.84375 -0.238281 1.875 -0.1875 1.90625 -0.15625 C 1.945312 -0.132812 1.976562 -0.125 2 -0.125 Z M 3.046875 -5.296875 L 3.046875 -5.28125 C 3.335938 -5.28125 3.640625 -5.3125 3.953125 -5.375 C 4.273438 -5.4375 4.570312 -5.546875 4.84375 -5.703125 C 5.113281 -5.867188 5.335938 -6.085938 5.515625 -6.359375 C 5.691406 -6.640625 5.78125 -6.988281 5.78125 -7.40625 C 5.78125 -7.820312 5.691406 -8.164062 5.515625 -8.4375 C 5.335938 -8.71875 5.113281 -8.9375 4.84375 -9.09375 C 4.570312 -9.257812 4.273438 -9.375 3.953125 -9.4375 C 3.640625 -9.507812 3.335938 -9.546875 3.046875 -9.546875 C 2.828125 -9.546875 2.601562 -9.535156 2.375 -9.515625 C 2.144531 -9.503906 1.914062 -9.488281 1.6875 -9.46875 L 1.6875 -5.296875 Z M 3.046875 -5.296875 "/></g></g></g><g fill="#ffa62b" fill-opacity="1"><g transform="translate(40.504305, 60.050702)"><g><path d="M 5.28125 -3.390625 L 5.28125 -1.171875 C 5.28125 -0.941406 5.289062 -0.757812 5.3125 -0.625 C 5.332031 -0.488281 5.359375 -0.378906 5.390625 -0.296875 C 5.429688 -0.222656 5.46875 -0.175781 5.5 -0.15625 C 5.539062 -0.132812 5.570312 -0.125 5.59375 -0.125 L 5.59375 0 L 4.015625 0 L 4.015625 -0.125 C 4.023438 -0.125 4.046875 -0.132812 4.078125 -0.15625 C 4.117188 -0.175781 4.15625 -0.222656 4.1875 -0.296875 C 4.21875 -0.378906 4.25 -0.488281 4.28125 -0.625 C 4.3125 -0.757812 4.328125 -0.941406 4.328125 -1.171875 L 4.328125 -3.140625 L 1.890625 -7.65625 C 1.734375 -7.882812 1.582031 -8.097656 1.4375 -8.296875 C 1.289062 -8.503906 1.15625 -8.691406 1.03125 -8.859375 C 0.914062 -9.023438 0.800781 -9.15625 0.6875 -9.25 C 0.582031 -9.351562 0.488281 -9.40625 0.40625 -9.40625 L 0.40625 -9.53125 L 2.421875 -9.53125 L 2.421875 -9.40625 C 2.367188 -9.40625 2.351562 -9.296875 2.375 -9.078125 C 2.40625 -8.859375 2.515625 -8.566406 2.703125 -8.203125 L 5.21875 -3.515625 L 7.453125 -8.09375 C 7.472656 -8.15625 7.515625 -8.253906 7.578125 -8.390625 C 7.640625 -8.535156 7.6875 -8.679688 7.71875 -8.828125 C 7.75 -8.984375 7.75 -9.117188 7.71875 -9.234375 C 7.6875 -9.347656 7.59375 -9.40625 7.4375 -9.40625 L 7.4375 -9.53125 L 8.609375 -9.53125 L 8.609375 -9.40625 C 8.503906 -9.40625 8.359375 -9.289062 8.171875 -9.0625 C 7.984375 -8.832031 7.742188 -8.414062 7.453125 -7.8125 Z M 5.28125 -3.390625 "/></g></g></g><g fill="#ffa62b" fill-opacity="1"><g transform="translate(49.511867, 60.050702)"><g/></g></g><g fill="#ffa62b" fill-opacity="1"><g transform="translate(52.532454, 60.050702)"><g><path d="M 8.125 -8.359375 L 8 -8.359375 C 7.800781 -8.578125 7.609375 -8.753906 7.421875 -8.890625 C 7.234375 -9.023438 7.015625 -9.128906 6.765625 -9.203125 C 6.523438 -9.273438 6.242188 -9.320312 5.921875 -9.34375 C 5.597656 -9.375 5.203125 -9.390625 4.734375 -9.390625 L 4.734375 -1.171875 C 4.734375 -0.953125 4.742188 -0.769531 4.765625 -0.625 C 4.796875 -0.488281 4.828125 -0.382812 4.859375 -0.3125 C 4.898438 -0.238281 4.9375 -0.1875 4.96875 -0.15625 C 5.007812 -0.132812 5.035156 -0.125 5.046875 -0.125 L 5.046875 0 L 3.46875 0 L 3.46875 -0.125 C 3.488281 -0.125 3.515625 -0.132812 3.546875 -0.15625 C 3.585938 -0.1875 3.625 -0.238281 3.65625 -0.3125 C 3.6875 -0.382812 3.710938 -0.488281 3.734375 -0.625 C 3.765625 -0.769531 3.78125 -0.953125 3.78125 -1.171875 L 3.78125 -9.390625 C 3.320312 -9.390625 2.925781 -9.375 2.59375 -9.34375 C 2.269531 -9.320312 1.988281 -9.273438 1.75 -9.203125 C 1.507812 -9.128906 1.296875 -9.023438 1.109375 -8.890625 C 0.921875 -8.753906 0.726562 -8.578125 0.53125 -8.359375 L 0.40625 -8.359375 L 0.40625 -9.515625 L 8.125 -9.515625 Z M 8.125 -8.359375 "/></g></g></g><g fill="#ffa62b" fill-opacity="1"><g transform="translate(61.065934, 60.050702)"><g><path d="M 2 -9.390625 C 1.976562 -9.390625 1.945312 -9.375 1.90625 -9.34375 C 1.875 -9.320312 1.84375 -9.273438 1.8125 -9.203125 C 1.78125 -9.128906 1.75 -9.023438 1.71875 -8.890625 C 1.695312 -8.753906 1.6875 -8.570312 1.6875 -8.34375 L 1.6875 -1.171875 C 1.6875 -0.953125 1.695312 -0.769531 1.71875 -0.625 C 1.75 -0.488281 1.78125 -0.382812 1.8125 -0.3125 C 1.84375 -0.238281 1.875 -0.1875 1.90625 -0.15625 C 1.945312 -0.132812 1.976562 -0.125 2 -0.125 L 2 0 L 0.40625 0 L 0.40625 -0.125 C 0.425781 -0.125 0.453125 -0.132812 0.484375 -0.15625 C 0.523438 -0.1875 0.5625 -0.238281 0.59375 -0.3125 C 0.625 -0.382812 0.648438 -0.488281 0.671875 -0.625 C 0.703125 -0.769531 0.71875 -0.953125 0.71875 -1.171875 L 0.71875 -8.34375 C 0.71875 -8.570312 0.703125 -8.753906 0.671875 -8.890625 C 0.648438 -9.023438 0.625 -9.128906 0.59375 -9.203125 C 0.5625 -9.273438 0.523438 -9.320312 0.484375 -9.34375 C 0.453125 -9.375 0.425781 -9.390625 0.40625 -9.390625 L 0.40625 -9.515625 L 2 -9.515625 Z M 2 -9.390625 "/></g></g></g><g fill="#ffa62b" fill-opacity="1"><g transform="translate(63.476982, 60.050702)"><g><path d="M 11.03125 -9.515625 L 11.03125 -9.390625 C 11.007812 -9.390625 10.976562 -9.375 10.9375 -9.34375 C 10.90625 -9.320312 10.867188 -9.273438 10.828125 -9.203125 C 10.796875 -9.128906 10.769531 -9.023438 10.75 -8.890625 C 10.726562 -8.753906 10.71875 -8.570312 10.71875 -8.34375 L 10.71875 -1.171875 C 10.71875 -0.953125 10.726562 -0.769531 10.75 -0.625 C 10.769531 -0.488281 10.796875 -0.382812 10.828125 -0.3125 C 10.867188 -0.238281 10.90625 -0.1875 10.9375 -0.15625 C 10.976562 -0.132812 11.007812 -0.125 11.03125 -0.125 L 11.03125 0 L 9.421875 0 L 9.421875 -0.125 C 9.441406 -0.125 9.46875 -0.132812 9.5 -0.15625 C 9.539062 -0.1875 9.578125 -0.238281 9.609375 -0.3125 C 9.640625 -0.382812 9.664062 -0.488281 9.6875 -0.625 C 9.71875 -0.769531 9.734375 -0.953125 9.734375 -1.171875 L 9.734375 -9.21875 L 5.671875 -0.796875 L 6.0625 0 L 4.984375 0 L 1.046875 -8.203125 L 1.046875 -2.21875 C 1.046875 -1.90625 1.0625 -1.617188 1.09375 -1.359375 C 1.132812 -1.097656 1.175781 -0.875 1.21875 -0.6875 C 1.269531 -0.507812 1.328125 -0.367188 1.390625 -0.265625 C 1.453125 -0.171875 1.507812 -0.125 1.5625 -0.125 L 1.5625 0 L 0.40625 0 L 0.40625 -0.125 C 0.457031 -0.125 0.507812 -0.171875 0.5625 -0.265625 C 0.625 -0.367188 0.679688 -0.507812 0.734375 -0.6875 C 0.785156 -0.875 0.828125 -1.097656 0.859375 -1.359375 C 0.898438 -1.617188 0.921875 -1.90625 0.921875 -2.21875 L 0.921875 -8.4375 L 0.40625 -9.515625 L 1.484375 -9.515625 L 5.609375 -0.9375 L 9.734375 -9.515625 Z M 11.03125 -9.515625 "/></g></g></g><g fill="#ffa62b" fill-opacity="1"><g transform="translate(74.909139, 60.050702)"><g><path d="M 0.578125 -3.515625 C 0.410156 -4.160156 0.367188 -4.796875 0.453125 -5.421875 C 0.546875 -6.054688 0.75 -6.640625 1.0625 -7.171875 C 1.375 -7.710938 1.773438 -8.175781 2.265625 -8.5625 C 2.765625 -8.957031 3.335938 -9.242188 3.984375 -9.421875 C 4.441406 -9.546875 4.898438 -9.597656 5.359375 -9.578125 C 5.828125 -9.554688 6.273438 -9.476562 6.703125 -9.34375 C 7.128906 -9.207031 7.53125 -9.015625 7.90625 -8.765625 C 8.28125 -8.523438 8.613281 -8.234375 8.90625 -7.890625 L 8.578125 -6.6875 L 8.453125 -6.6875 C 8.242188 -7.101562 7.984375 -7.5 7.671875 -7.875 C 7.367188 -8.25 7.023438 -8.5625 6.640625 -8.8125 C 6.265625 -9.070312 5.851562 -9.25 5.40625 -9.34375 C 4.957031 -9.445312 4.492188 -9.4375 4.015625 -9.3125 C 3.578125 -9.1875 3.195312 -8.992188 2.875 -8.734375 C 2.550781 -8.472656 2.28125 -8.164062 2.0625 -7.8125 C 1.84375 -7.46875 1.671875 -7.085938 1.546875 -6.671875 C 1.429688 -6.265625 1.375 -5.847656 1.375 -5.421875 L 1.640625 -5.421875 C 2.179688 -5.421875 2.71875 -5.441406 3.25 -5.484375 C 3.789062 -5.535156 4.28125 -5.597656 4.71875 -5.671875 C 5.21875 -5.742188 5.703125 -5.832031 6.171875 -5.9375 L 6.296875 -5.9375 L 6.296875 -4.78125 L 6.171875 -4.78125 C 5.703125 -4.875 5.21875 -4.960938 4.71875 -5.046875 C 4.28125 -5.109375 3.789062 -5.164062 3.25 -5.21875 C 2.71875 -5.269531 2.179688 -5.296875 1.640625 -5.296875 L 1.359375 -5.296875 C 1.359375 -5.035156 1.367188 -4.773438 1.390625 -4.515625 C 1.421875 -4.265625 1.472656 -4.019531 1.546875 -3.78125 C 1.742188 -3.019531 2.054688 -2.382812 2.484375 -1.875 C 2.921875 -1.375 3.40625 -0.992188 3.9375 -0.734375 C 4.476562 -0.472656 5.039062 -0.328125 5.625 -0.296875 C 6.207031 -0.273438 6.753906 -0.375 7.265625 -0.59375 C 7.785156 -0.8125 8.238281 -1.140625 8.625 -1.578125 C 9.007812 -2.023438 9.269531 -2.585938 9.40625 -3.265625 L 9.53125 -3.234375 C 9.382812 -2.503906 9.085938 -1.890625 8.640625 -1.390625 C 8.203125 -0.898438 7.6875 -0.535156 7.09375 -0.296875 C 6.5 -0.0664062 5.863281 0.0390625 5.1875 0.03125 C 4.519531 0.03125 3.878906 -0.0976562 3.265625 -0.359375 C 2.648438 -0.628906 2.097656 -1.023438 1.609375 -1.546875 C 1.128906 -2.078125 0.785156 -2.734375 0.578125 -3.515625 Z M 0.578125 -3.515625 "/></g></g></g><g fill="#ffa62b" fill-opacity="1"><g transform="translate(84.844014, 60.050702)"><g/></g></g><g fill="#ffa62b" fill-opacity="1"><g transform="translate(9.919206, 78.717736)"><g><path d="M 4.3125 0.109375 C 3.84375 0.109375 3.398438 0.0390625 2.984375 -0.09375 C 2.578125 -0.226562 2.203125 -0.398438 1.859375 -0.609375 C 1.523438 -0.828125 1.234375 -1.0625 0.984375 -1.3125 C 0.734375 -1.5625 0.539062 -1.804688 0.40625 -2.046875 L 0.734375 -3.25 L 0.84375 -3.25 C 1.125 -2.644531 1.441406 -2.101562 1.796875 -1.625 C 1.953125 -1.414062 2.125 -1.210938 2.3125 -1.015625 C 2.5 -0.828125 2.691406 -0.65625 2.890625 -0.5 C 3.097656 -0.351562 3.320312 -0.234375 3.5625 -0.140625 C 3.800781 -0.046875 4.050781 0 4.3125 0 C 4.457031 0 4.648438 -0.0234375 4.890625 -0.078125 C 5.128906 -0.128906 5.363281 -0.222656 5.59375 -0.359375 C 5.832031 -0.492188 6.035156 -0.671875 6.203125 -0.890625 C 6.378906 -1.109375 6.46875 -1.378906 6.46875 -1.703125 C 6.46875 -2.023438 6.382812 -2.320312 6.21875 -2.59375 C 6.0625 -2.863281 5.859375 -3.109375 5.609375 -3.328125 C 5.367188 -3.546875 5.085938 -3.738281 4.765625 -3.90625 C 4.453125 -4.070312 4.140625 -4.210938 3.828125 -4.328125 C 3.484375 -4.453125 3.144531 -4.597656 2.8125 -4.765625 C 2.488281 -4.929688 2.203125 -5.128906 1.953125 -5.359375 C 1.703125 -5.585938 1.5 -5.851562 1.34375 -6.15625 C 1.195312 -6.457031 1.125 -6.800781 1.125 -7.1875 C 1.125 -7.550781 1.195312 -7.882812 1.34375 -8.1875 C 1.488281 -8.488281 1.679688 -8.742188 1.921875 -8.953125 C 2.171875 -9.171875 2.460938 -9.335938 2.796875 -9.453125 C 3.128906 -9.566406 3.476562 -9.625 3.84375 -9.625 C 4.300781 -9.625 4.695312 -9.578125 5.03125 -9.484375 C 5.375 -9.390625 5.671875 -9.257812 5.921875 -9.09375 C 6.171875 -8.9375 6.378906 -8.75 6.546875 -8.53125 C 6.722656 -8.320312 6.878906 -8.101562 7.015625 -7.875 L 6.6875 -6.671875 L 6.5625 -6.671875 C 6.414062 -7.203125 6.21875 -7.675781 5.96875 -8.09375 C 5.863281 -8.257812 5.742188 -8.425781 5.609375 -8.59375 C 5.472656 -8.769531 5.316406 -8.925781 5.140625 -9.0625 C 4.960938 -9.195312 4.765625 -9.304688 4.546875 -9.390625 C 4.335938 -9.472656 4.101562 -9.515625 3.84375 -9.515625 C 3.6875 -9.515625 3.488281 -9.484375 3.25 -9.421875 C 3.007812 -9.367188 2.769531 -9.273438 2.53125 -9.140625 C 2.300781 -9.015625 2.101562 -8.84375 1.9375 -8.625 C 1.769531 -8.40625 1.6875 -8.128906 1.6875 -7.796875 C 1.6875 -7.472656 1.765625 -7.175781 1.921875 -6.90625 C 2.078125 -6.632812 2.28125 -6.390625 2.53125 -6.171875 C 2.78125 -5.960938 3.0625 -5.773438 3.375 -5.609375 C 3.6875 -5.441406 4.003906 -5.304688 4.328125 -5.203125 C 4.671875 -5.078125 5.003906 -4.925781 5.328125 -4.75 C 5.660156 -4.582031 5.953125 -4.382812 6.203125 -4.15625 C 6.453125 -3.925781 6.648438 -3.660156 6.796875 -3.359375 C 6.953125 -3.054688 7.03125 -2.71875 7.03125 -2.34375 C 7.03125 -1.96875 6.957031 -1.628906 6.8125 -1.328125 C 6.664062 -1.023438 6.46875 -0.769531 6.21875 -0.5625 C 5.96875 -0.351562 5.675781 -0.1875 5.34375 -0.0625 C 5.007812 0.0507812 4.664062 0.109375 4.3125 0.109375 Z M 4.3125 0.109375 "/></g></g></g><g fill="#ffa62b" fill-opacity="1"><g transform="translate(17.355531, 78.717736)"><g><path d="M 8.125 -8.359375 L 8 -8.359375 C 7.800781 -8.578125 7.609375 -8.753906 7.421875 -8.890625 C 7.234375 -9.023438 7.015625 -9.128906 6.765625 -9.203125 C 6.523438 -9.273438 6.242188 -9.320312 5.921875 -9.34375 C 5.597656 -9.375 5.203125 -9.390625 4.734375 -9.390625 L 4.734375 -1.171875 C 4.734375 -0.953125 4.742188 -0.769531 4.765625 -0.625 C 4.796875 -0.488281 4.828125 -0.382812 4.859375 -0.3125 C 4.898438 -0.238281 4.9375 -0.1875 4.96875 -0.15625 C 5.007812 -0.132812 5.035156 -0.125 5.046875 -0.125 L 5.046875 0 L 3.46875 0 L 3.46875 -0.125 C 3.488281 -0.125 3.515625 -0.132812 3.546875 -0.15625 C 3.585938 -0.1875 3.625 -0.238281 3.65625 -0.3125 C 3.6875 -0.382812 3.710938 -0.488281 3.734375 -0.625 C 3.765625 -0.769531 3.78125 -0.953125 3.78125 -1.171875 L 3.78125 -9.390625 C 3.320312 -9.390625 2.925781 -9.375 2.59375 -9.34375 C 2.269531 -9.320312 1.988281 -9.273438 1.75 -9.203125 C 1.507812 -9.128906 1.296875 -9.023438 1.109375 -8.890625 C 0.921875 -8.753906 0.726562 -8.578125 0.53125 -8.359375 L 0.40625 -8.359375 L 0.40625 -9.515625 L 8.125 -9.515625 Z M 8.125 -8.359375 "/></g></g></g><g fill="#ffa62b" fill-opacity="1"><g transform="translate(25.889011, 78.717736)"><g><path d="M 0.71875 -8.34375 C 0.71875 -8.570312 0.703125 -8.753906 0.671875 -8.890625 C 0.648438 -9.023438 0.625 -9.128906 0.59375 -9.203125 C 0.5625 -9.273438 0.523438 -9.320312 0.484375 -9.34375 C 0.453125 -9.375 0.425781 -9.390625 0.40625 -9.390625 L 0.40625 -9.515625 L 1.984375 -9.515625 L 1.984375 -9.390625 C 1.972656 -9.390625 1.945312 -9.375 1.90625 -9.34375 C 1.875 -9.320312 1.835938 -9.273438 1.796875 -9.203125 C 1.765625 -9.128906 1.738281 -9.023438 1.71875 -8.890625 C 1.695312 -8.753906 1.6875 -8.570312 1.6875 -8.34375 L 1.6875 -3.578125 C 1.675781 -2.921875 1.753906 -2.335938 1.921875 -1.828125 C 1.992188 -1.609375 2.085938 -1.390625 2.203125 -1.171875 C 2.328125 -0.960938 2.484375 -0.773438 2.671875 -0.609375 C 2.859375 -0.453125 3.078125 -0.320312 3.328125 -0.21875 C 3.585938 -0.125 3.890625 -0.078125 4.234375 -0.078125 C 4.566406 -0.078125 4.921875 -0.125 5.296875 -0.21875 C 5.679688 -0.3125 6.035156 -0.484375 6.359375 -0.734375 C 6.691406 -0.984375 6.960938 -1.335938 7.171875 -1.796875 C 7.378906 -2.253906 7.484375 -2.847656 7.484375 -3.578125 L 7.484375 -7.296875 C 7.484375 -7.617188 7.46875 -7.90625 7.4375 -8.15625 C 7.40625 -8.414062 7.363281 -8.632812 7.3125 -8.8125 C 7.257812 -9 7.203125 -9.140625 7.140625 -9.234375 C 7.085938 -9.335938 7.035156 -9.390625 6.984375 -9.390625 L 6.984375 -9.515625 L 8.125 -9.515625 L 8.125 -9.390625 C 8.070312 -9.390625 8.015625 -9.335938 7.953125 -9.234375 C 7.898438 -9.140625 7.847656 -9 7.796875 -8.8125 C 7.742188 -8.632812 7.695312 -8.414062 7.65625 -8.15625 C 7.625 -7.90625 7.609375 -7.617188 7.609375 -7.296875 L 7.609375 -3.578125 C 7.609375 -3.003906 7.546875 -2.515625 7.421875 -2.109375 C 7.296875 -1.710938 7.132812 -1.378906 6.9375 -1.109375 C 6.738281 -0.835938 6.515625 -0.625 6.265625 -0.46875 C 6.015625 -0.3125 5.765625 -0.191406 5.515625 -0.109375 C 5.273438 -0.0234375 5.050781 0.0234375 4.84375 0.046875 C 4.632812 0.0664062 4.460938 0.078125 4.328125 0.078125 C 4.203125 0.078125 4.023438 0.0625 3.796875 0.03125 C 3.566406 0.0078125 3.316406 -0.0390625 3.046875 -0.125 C 2.773438 -0.21875 2.5 -0.347656 2.21875 -0.515625 C 1.945312 -0.679688 1.703125 -0.898438 1.484375 -1.171875 C 1.265625 -1.441406 1.082031 -1.769531 0.9375 -2.15625 C 0.789062 -2.550781 0.71875 -3.023438 0.71875 -3.578125 Z M 0.71875 -8.34375 "/></g></g></g><g fill="#ffa62b" fill-opacity="1"><g transform="translate(34.422491, 78.717736)"><g><path d="M 0.40625 -9.515625 L 1.6875 -9.515625 L 1.6875 -8.078125 C 1.832031 -8.523438 2.101562 -8.878906 2.5 -9.140625 C 2.90625 -9.398438 3.363281 -9.554688 3.875 -9.609375 C 4.394531 -9.671875 4.929688 -9.617188 5.484375 -9.453125 C 6.046875 -9.285156 6.554688 -9 7.015625 -8.59375 C 7.484375 -8.195312 7.863281 -7.679688 8.15625 -7.046875 C 8.457031 -6.410156 8.609375 -5.644531 8.609375 -4.75 C 8.609375 -3.875 8.46875 -3.125 8.1875 -2.5 C 7.90625 -1.882812 7.507812 -1.378906 7 -0.984375 C 6.5 -0.585938 5.90625 -0.296875 5.21875 -0.109375 C 4.53125 0.0664062 3.785156 0.15625 2.984375 0.15625 C 2.585938 0.15625 2.179688 0.128906 1.765625 0.078125 C 1.347656 0.0351562 0.9375 0.0078125 0.53125 0 L 0.40625 0 L 0.40625 -0.125 C 0.425781 -0.125 0.453125 -0.132812 0.484375 -0.15625 C 0.523438 -0.1875 0.5625 -0.238281 0.59375 -0.3125 C 0.625 -0.382812 0.648438 -0.488281 0.671875 -0.625 C 0.703125 -0.769531 0.71875 -0.953125 0.71875 -1.171875 L 0.71875 -8.34375 C 0.71875 -8.570312 0.703125 -8.753906 0.671875 -8.890625 C 0.648438 -9.023438 0.625 -9.128906 0.59375 -9.203125 C 0.5625 -9.273438 0.523438 -9.320312 0.484375 -9.34375 C 0.453125 -9.375 0.425781 -9.390625 0.40625 -9.390625 Z M 7.671875 -4.75 C 7.671875 -5.6875 7.519531 -6.472656 7.21875 -7.109375 C 6.925781 -7.753906 6.554688 -8.257812 6.109375 -8.625 C 5.671875 -8.988281 5.191406 -9.222656 4.671875 -9.328125 C 4.160156 -9.441406 3.679688 -9.4375 3.234375 -9.3125 C 2.785156 -9.1875 2.414062 -8.953125 2.125 -8.609375 C 1.832031 -8.273438 1.6875 -7.84375 1.6875 -7.3125 L 1.6875 -0.046875 C 1.90625 -0.0351562 2.125 -0.0195312 2.34375 0 C 2.5625 0.0195312 2.773438 0.03125 2.984375 0.03125 C 3.722656 0.03125 4.378906 -0.078125 4.953125 -0.296875 C 5.535156 -0.523438 6.023438 -0.84375 6.421875 -1.25 C 6.828125 -1.664062 7.132812 -2.164062 7.34375 -2.75 C 7.5625 -3.34375 7.671875 -4.007812 7.671875 -4.75 Z M 7.671875 -4.75 "/></g></g></g><g fill="#ffa62b" fill-opacity="1"><g transform="translate(43.4436, 78.717736)"><g><path d="M 2 -9.390625 C 1.976562 -9.390625 1.945312 -9.375 1.90625 -9.34375 C 1.875 -9.320312 1.84375 -9.273438 1.8125 -9.203125 C 1.78125 -9.128906 1.75 -9.023438 1.71875 -8.890625 C 1.695312 -8.753906 1.6875 -8.570312 1.6875 -8.34375 L 1.6875 -1.171875 C 1.6875 -0.953125 1.695312 -0.769531 1.71875 -0.625 C 1.75 -0.488281 1.78125 -0.382812 1.8125 -0.3125 C 1.84375 -0.238281 1.875 -0.1875 1.90625 -0.15625 C 1.945312 -0.132812 1.976562 -0.125 2 -0.125 L 2 0 L 0.40625 0 L 0.40625 -0.125 C 0.425781 -0.125 0.453125 -0.132812 0.484375 -0.15625 C 0.523438 -0.1875 0.5625 -0.238281 0.59375 -0.3125 C 0.625 -0.382812 0.648438 -0.488281 0.671875 -0.625 C 0.703125 -0.769531 0.71875 -0.953125 0.71875 -1.171875 L 0.71875 -8.34375 C 0.71875 -8.570312 0.703125 -8.753906 0.671875 -8.890625 C 0.648438 -9.023438 0.625 -9.128906 0.59375 -9.203125 C 0.5625 -9.273438 0.523438 -9.320312 0.484375 -9.34375 C 0.453125 -9.375 0.425781 -9.390625 0.40625 -9.390625 L 0.40625 -9.515625 L 2 -9.515625 Z M 2 -9.390625 "/></g></g></g><g fill="#ffa62b" fill-opacity="1"><g transform="translate(45.854648, 78.717736)"><g><path d="M 0.5625 -3.515625 C 0.394531 -4.160156 0.359375 -4.796875 0.453125 -5.421875 C 0.546875 -6.054688 0.742188 -6.640625 1.046875 -7.171875 C 1.359375 -7.710938 1.757812 -8.175781 2.25 -8.5625 C 2.75 -8.957031 3.320312 -9.242188 3.96875 -9.421875 C 4.613281 -9.585938 5.25 -9.625 5.875 -9.53125 C 6.507812 -9.445312 7.09375 -9.25 7.625 -8.9375 C 8.15625 -8.632812 8.617188 -8.234375 9.015625 -7.734375 C 9.410156 -7.234375 9.691406 -6.660156 9.859375 -6.015625 C 10.035156 -5.367188 10.078125 -4.734375 9.984375 -4.109375 C 9.890625 -3.484375 9.6875 -2.90625 9.375 -2.375 C 9.070312 -1.84375 8.671875 -1.375 8.171875 -0.96875 C 7.671875 -0.570312 7.101562 -0.289062 6.46875 -0.125 C 5.820312 0.0507812 5.179688 0.09375 4.546875 0 C 3.921875 -0.09375 3.34375 -0.289062 2.8125 -0.59375 C 2.28125 -0.90625 1.816406 -1.3125 1.421875 -1.8125 C 1.023438 -2.3125 0.738281 -2.878906 0.5625 -3.515625 Z M 8.90625 -5.75 C 8.769531 -6.28125 8.546875 -6.789062 8.234375 -7.28125 C 7.921875 -7.78125 7.546875 -8.207031 7.109375 -8.5625 C 6.679688 -8.914062 6.203125 -9.164062 5.671875 -9.3125 C 5.140625 -9.457031 4.585938 -9.457031 4.015625 -9.3125 C 3.421875 -9.15625 2.929688 -8.878906 2.546875 -8.484375 C 2.171875 -8.085938 1.878906 -7.628906 1.671875 -7.109375 C 1.472656 -6.585938 1.363281 -6.03125 1.34375 -5.4375 C 1.332031 -4.851562 1.394531 -4.300781 1.53125 -3.78125 C 1.675781 -3.257812 1.898438 -2.75 2.203125 -2.25 C 2.515625 -1.757812 2.882812 -1.335938 3.3125 -0.984375 C 3.75 -0.628906 4.226562 -0.375 4.75 -0.21875 C 5.28125 -0.0703125 5.84375 -0.0820312 6.4375 -0.25 C 7.007812 -0.394531 7.488281 -0.664062 7.875 -1.0625 C 8.257812 -1.46875 8.550781 -1.925781 8.75 -2.4375 C 8.945312 -2.957031 9.054688 -3.507812 9.078125 -4.09375 C 9.097656 -4.675781 9.039062 -5.226562 8.90625 -5.75 Z M 8.90625 -5.75 "/></g></g></g><g fill="#ffa62b" fill-opacity="1"><g transform="translate(9.919206, 105.673147)"><g><path d="M 4.5 -0.40625 C 4.570312 -0.257812 4.644531 -0.125 4.71875 0 L 3.796875 0 C 3.765625 -0.0507812 3.726562 -0.128906 3.6875 -0.234375 L 3.59375 -0.40625 C 3.550781 -0.5 3.484375 -0.671875 3.390625 -0.921875 C 3.285156 -1.191406 3.191406 -1.414062 3.109375 -1.59375 C 3.035156 -1.769531 2.941406 -1.925781 2.828125 -2.0625 C 2.722656 -2.207031 2.601562 -2.300781 2.46875 -2.34375 C 2.320312 -2.34375 2 -2.34375 1.5 -2.34375 L 1.5 0 L 0.703125 0 L 0.703125 -5.5 L 1.046875 -5.5 C 1.179688 -5.5 1.367188 -5.503906 1.609375 -5.515625 C 1.992188 -5.535156 2.273438 -5.546875 2.453125 -5.546875 C 3.035156 -5.546875 3.488281 -5.421875 3.8125 -5.171875 C 4.144531 -4.921875 4.3125 -4.53125 4.3125 -4 C 4.3125 -3.601562 4.222656 -3.28125 4.046875 -3.03125 C 3.878906 -2.78125 3.640625 -2.597656 3.328125 -2.484375 C 3.429688 -2.410156 3.53125 -2.300781 3.625 -2.15625 C 3.71875 -2.019531 3.800781 -1.875 3.875 -1.71875 C 3.957031 -1.570312 4.050781 -1.375 4.15625 -1.125 C 4.300781 -0.78125 4.414062 -0.539062 4.5 -0.40625 Z M 1.5 -2.90625 C 1.632812 -2.894531 1.921875 -2.890625 2.359375 -2.890625 C 2.722656 -2.890625 3.003906 -2.972656 3.203125 -3.140625 C 3.398438 -3.316406 3.5 -3.59375 3.5 -3.96875 C 3.5 -4.195312 3.457031 -4.382812 3.375 -4.53125 C 3.300781 -4.675781 3.175781 -4.78125 3 -4.84375 C 2.832031 -4.914062 2.609375 -4.953125 2.328125 -4.953125 C 1.992188 -4.953125 1.71875 -4.929688 1.5 -4.890625 Z M 1.5 -2.90625 "/></g></g></g><g fill="#ffa62b" fill-opacity="1"><g transform="translate(15.710944, 105.673147)"><g><path d="M 3.859375 -5.5 L 3.859375 -4.875 L 1.5 -4.875 L 1.5 -3.140625 L 3.234375 -3.140625 L 3.234375 -2.515625 L 1.5 -2.515625 L 1.5 -0.625 L 4.125 -0.625 L 4.125 0 L 0.703125 0 L 0.703125 -5.5 Z M 3.859375 -5.5 "/></g></g></g><g fill="#ffa62b" fill-opacity="1"><g transform="translate(20.961253, 105.673147)"><g><path d="M 1.515625 -5.5 L 1.515625 -0.625 L 3.703125 -0.625 L 3.703125 0 L 0.703125 0 L 0.703125 -5.5 Z M 1.515625 -5.5 "/></g></g></g><g fill="#ffa62b" fill-opacity="1"><g transform="translate(25.717056, 105.673147)"><g><path d="M 3.671875 -1.390625 L 1.421875 -1.390625 L 0.921875 0 L 0.078125 0 L 2.171875 -5.546875 L 2.953125 -5.546875 L 5 0 L 4.125 0 Z M 3.46875 -1.984375 L 2.71875 -4.1875 L 2.5625 -4.703125 L 2.40625 -4.1875 L 1.625 -1.984375 Z M 3.46875 -1.984375 "/></g></g></g><g fill="#ffa62b" fill-opacity="1"><g transform="translate(31.653175, 105.673147)"><g><path d="M 4.59375 0 L 3.671875 0 L 2.703125 -1.609375 L 2.328125 -2.234375 L 1.96875 -1.609375 L 1.015625 0 L 0.15625 0 L 1.890625 -2.84375 L 0.15625 -5.5 L 1.0625 -5.5 L 1.96875 -4.046875 L 2.40625 -3.3125 L 3.6875 -5.5 L 4.546875 -5.5 L 2.828125 -2.71875 Z M 4.59375 0 "/></g></g></g><g fill="#ffa62b" fill-opacity="1"><g transform="translate(37.253607, 105.673147)"><g/></g></g><g fill="#ffa62b" fill-opacity="1"><g transform="translate(40.475358, 105.673147)"><g><path d="M 4.375 -0.65625 C 4.488281 -0.570312 4.601562 -0.507812 4.71875 -0.46875 C 4.84375 -0.4375 4.988281 -0.414062 5.15625 -0.40625 L 5.15625 0 C 5.03125 0.0390625 4.890625 0.0625 4.734375 0.0625 C 4.554688 0.0625 4.394531 0.0390625 4.25 0 C 4.113281 -0.0507812 3.976562 -0.128906 3.84375 -0.234375 C 3.675781 -0.140625 3.488281 -0.0664062 3.28125 -0.015625 C 3.082031 0.0351562 2.894531 0.0625 2.71875 0.0625 C 2.28125 0.0625 1.894531 0.00390625 1.5625 -0.109375 C 1.238281 -0.222656 0.984375 -0.390625 0.796875 -0.609375 C 0.617188 -0.828125 0.53125 -1.097656 0.53125 -1.421875 C 0.53125 -1.734375 0.628906 -2.007812 0.828125 -2.25 C 1.035156 -2.488281 1.3125 -2.6875 1.65625 -2.84375 C 1.46875 -3.09375 1.316406 -3.328125 1.203125 -3.546875 C 1.097656 -3.773438 1.046875 -4.019531 1.046875 -4.28125 C 1.046875 -4.550781 1.101562 -4.78125 1.21875 -4.96875 C 1.34375 -5.164062 1.515625 -5.316406 1.734375 -5.421875 C 1.960938 -5.523438 2.226562 -5.578125 2.53125 -5.578125 C 2.800781 -5.578125 3.039062 -5.519531 3.25 -5.40625 C 3.457031 -5.289062 3.613281 -5.132812 3.71875 -4.9375 C 3.832031 -4.75 3.890625 -4.550781 3.890625 -4.34375 C 3.890625 -4.050781 3.835938 -3.796875 3.734375 -3.578125 C 3.640625 -3.367188 3.503906 -3.1875 3.328125 -3.03125 C 3.160156 -2.882812 2.9375 -2.75 2.65625 -2.625 C 2.820312 -2.40625 3.023438 -2.132812 3.265625 -1.8125 C 3.515625 -1.5 3.726562 -1.25 3.90625 -1.0625 C 4.101562 -1.269531 4.203125 -1.546875 4.203125 -1.890625 C 4.203125 -2.109375 4.160156 -2.351562 4.078125 -2.625 L 4.765625 -2.625 C 4.835938 -2.382812 4.875 -2.140625 4.875 -1.890625 C 4.875 -1.359375 4.707031 -0.945312 4.375 -0.65625 Z M 2.515625 -5.015625 C 2.304688 -5.015625 2.128906 -4.957031 1.984375 -4.84375 C 1.847656 -4.726562 1.78125 -4.550781 1.78125 -4.3125 C 1.78125 -4.15625 1.789062 -4.023438 1.8125 -3.921875 C 1.84375 -3.828125 1.882812 -3.734375 1.9375 -3.640625 C 2 -3.554688 2.082031 -3.4375 2.1875 -3.28125 C 2.269531 -3.175781 2.316406 -3.113281 2.328125 -3.09375 C 2.617188 -3.21875 2.835938 -3.375 2.984375 -3.5625 C 3.140625 -3.757812 3.21875 -4.015625 3.21875 -4.328125 C 3.21875 -4.429688 3.1875 -4.535156 3.125 -4.640625 C 3.070312 -4.742188 2.992188 -4.832031 2.890625 -4.90625 C 2.785156 -4.976562 2.660156 -5.015625 2.515625 -5.015625 Z M 2.671875 -0.515625 C 2.796875 -0.515625 2.910156 -0.523438 3.015625 -0.546875 C 3.117188 -0.578125 3.226562 -0.613281 3.34375 -0.65625 C 3.144531 -0.875 2.921875 -1.144531 2.671875 -1.46875 C 2.429688 -1.789062 2.210938 -2.09375 2.015625 -2.375 C 1.785156 -2.25 1.601562 -2.109375 1.46875 -1.953125 C 1.34375 -1.796875 1.28125 -1.625 1.28125 -1.4375 C 1.28125 -1.269531 1.328125 -1.117188 1.421875 -0.984375 C 1.515625 -0.847656 1.660156 -0.734375 1.859375 -0.640625 C 2.066406 -0.554688 2.335938 -0.515625 2.671875 -0.515625 Z M 2.671875 -0.515625 "/></g></g></g><g fill="#ffa62b" fill-opacity="1"><g transform="translate(46.862668, 105.673147)"><g/></g></g><g fill="#ffa62b" fill-opacity="1"><g transform="translate(50.084419, 105.673147)"><g><path d="M 2.890625 -5.546875 C 3.191406 -5.546875 3.441406 -5.53125 3.640625 -5.5 C 3.847656 -5.46875 4.039062 -5.425781 4.21875 -5.375 L 4.328125 -5.34375 L 4.203125 -4.625 C 4.117188 -4.675781 4.035156 -4.71875 3.953125 -4.75 C 3.878906 -4.78125 3.753906 -4.8125 3.578125 -4.84375 C 3.398438 -4.875 3.1875 -4.890625 2.9375 -4.890625 C 2.570312 -4.890625 2.253906 -4.800781 1.984375 -4.625 C 1.710938 -4.457031 1.503906 -4.210938 1.359375 -3.890625 C 1.210938 -3.578125 1.140625 -3.203125 1.140625 -2.765625 C 1.140625 -2.335938 1.210938 -1.957031 1.359375 -1.625 C 1.503906 -1.300781 1.710938 -1.046875 1.984375 -0.859375 C 2.253906 -0.671875 2.570312 -0.578125 2.9375 -0.578125 C 3.113281 -0.578125 3.296875 -0.59375 3.484375 -0.625 C 3.671875 -0.65625 3.832031 -0.695312 3.96875 -0.75 C 4.113281 -0.800781 4.21875 -0.851562 4.28125 -0.90625 L 4.28125 -0.234375 C 4.125 -0.171875 3.988281 -0.117188 3.875 -0.078125 C 3.769531 -0.046875 3.632812 -0.015625 3.46875 0.015625 C 3.300781 0.046875 3.113281 0.0625 2.90625 0.0625 C 2.382812 0.0625 1.929688 -0.0507812 1.546875 -0.28125 C 1.160156 -0.519531 0.863281 -0.847656 0.65625 -1.265625 C 0.445312 -1.679688 0.34375 -2.164062 0.34375 -2.71875 C 0.34375 -3.300781 0.457031 -3.804688 0.6875 -4.234375 C 0.914062 -4.660156 1.222656 -4.984375 1.609375 -5.203125 C 2.003906 -5.429688 2.429688 -5.546875 2.890625 -5.546875 Z M 2.890625 -5.546875 "/></g></g></g><g fill="#ffa62b" fill-opacity="1"><g transform="translate(55.681242, 105.673147)"><g><path d="M 1.5 -5.5 L 1.5 -3.078125 L 4.09375 -3.078125 L 4.09375 -5.5 L 4.90625 -5.5 L 4.90625 0 L 4.09375 0 L 4.09375 -2.46875 L 1.5 -2.46875 L 1.5 0 L 0.703125 0 L 0.703125 -5.5 Z M 1.5 -5.5 "/></g></g></g><g fill="#ffa62b" fill-opacity="1"><g transform="translate(62.140742, 105.673147)"><g><path d="M 1.5625 -5.5 L 1.5625 0 L 0.75 0 L 0.75 -5.5 Z M 1.5625 -5.5 "/></g></g></g><g fill="#ffa62b" fill-opacity="1"><g transform="translate(65.30835, 105.673147)"><g><path d="M 1.515625 -5.5 L 1.515625 -0.625 L 3.703125 -0.625 L 3.703125 0 L 0.703125 0 L 0.703125 -5.5 Z M 1.515625 -5.5 "/></g></g></g><g fill="#ffa62b" fill-opacity="1"><g transform="translate(70.064152, 105.673147)"><g><path d="M 1.515625 -5.5 L 1.515625 -0.625 L 3.703125 -0.625 L 3.703125 0 L 0.703125 0 L 0.703125 -5.5 Z M 1.515625 -5.5 "/></g></g></g></svg>