<svg width="150" height="100" viewBox="0 0 150 100" fill="none" xmlns="http://www.w3.org/2000/svg">
<path d="M70.9 17.7V27.0999C72 26.2999 73.4 25.7 74.9 25.7C78.7 25.7 81.9 29.3 81.9 33.7V41.7H78.2V32C78.2 29.2 76.6 26.7999 74 26.7999C72.8 26.7999 70.8 27.9999 70.8 30.2999V41.7999H67.1V18.9L70.9 17.7Z" fill="#ffffff"/>
<path d="M97.7 41.5999H94V40.8999C93.1 41.3999 91.9 41.5999 90.7 41.5999C87 41.5999 84 38.9999 84 35.5999C84 32.2999 87 29.5999 90.7 29.5999C91.9 29.5999 93 29.8999 94.1 30.2999C93.7 27.9999 92.9 26.1999 91.3 26.0999C89.4 25.9999 87.5 28.2999 86.9 29.9999C86.7 29.8999 86.4 29.6999 86.2 29.4999L84.7 28.3999C84.4 28.1999 84.2 27.9999 84 27.8999C85.7 26.4999 87.8 25.5999 90.1 25.5999C90.5 25.5999 90.9 25.5999 91.3 25.6999C97.7 26.8999 97.9 33.5999 97.7 41.5999ZM89.1 40.7999C90.8 41.1999 92.8 39.1999 93.7 36.1999C94.5 33.2999 94 30.5999 92.3 30.1999C90.7 29.7999 88.6 31.8999 87.8 34.7999C87 37.6999 87.5 40.4999 89.1 40.7999Z" fill="#ffffff"/>
<path d="M103.9 40.7V49.5999H100.2V26.9L103.9 25.7V26.5999C105 25.9999 106.2 25.7 107.6 25.7C112 25.7 115.6 29.3 115.6 33.7C115.6 38.1 112 41.7 107.6 41.7C106.3 41.6 105.1 41.2 103.9 40.7ZM104.8 36.9C105.9 39.4 107.7 40.9 109.3 40.5C111.3 39.8 112.2 36.3999 111.4 32.5999C110.6 28.7999 108.1 26.3 106.2 26.9C105.2 27.2 104.4 28.2999 104 29.5999V37.7L104.8 36.9Z" fill="#ffffff"/>
<path d="M121.5 40.7V49.5999H117.8V26.9L121.5 25.7V26.5999C122.6 25.9999 123.8 25.7 125.2 25.7C129.6 25.7 133.2 29.3 133.2 33.7C133.2 38.1 129.6 41.7 125.2 41.7C123.9 41.6 122.7 41.2 121.5 40.7ZM122.3 36.9C123.4 39.4 125.2 40.9 126.8 40.5C128.8 39.8 129.7 36.3999 128.9 32.5999C128.1 28.8999 125.6 26.3 123.7 26.9C122.7 27.2 121.9 28.2999 121.5 29.5999V37.7L122.3 36.9Z" fill="#ffffff"/>
<path d="M135.9 49.5999V46C136.7 46.3 137.5 46.4 138.1 46.4C141 46.4 141.9 44.0999 142.9 41.5999H140L134 25.7H137.9L143.4 40.2999L148.9 25.7H149.9L143 44C141.8 47.2 139 49.3999 135.9 49.5999Z" fill="#ffffff"/>
<path d="M77 82.5V83.1H73.3C70.7 83.1 68.5 80.9 68.5 78.3V62.2H66V60.9H68.5V51.5L73.6 49.7V60.7H78V62H73.7V77.2C73.7 80.4 75 82.5 77 82.5Z" fill="#ffffff"/>
<path d="M82.8 52.8999C84.6 52.8999 86 54.2999 86 56.0999C86 57.8999 84.5 59.2999 82.8 59.2999C81 59.2999 79.6 57.7999 79.6 56.0999C79.5 54.2999 80.9 52.8999 82.8 52.8999ZM85.3 60.9999V83.0999H80.2V62.6999L85.3 60.9999Z" fill="#ffffff"/>
<path d="M93.8 61V63C95.4 61.8 97.3 61 99.4 61C102.8 61 105.7 63 107.5 65.9C108.9 62.5 111.7 61 114.8 61C120.1 61 124.5 66 124.5 72V83H119.4V69.5C119.4 65.7 117.2 62.3 113.6 62.3C111.8 62.3 109.1 64 109.1 67.2V83.1H104V69.5C104 65.7 101.8 62.3 98.2 62.3C96.5 62.3 93.7 64 93.7 67.2V83.1H88.6V62.7L93.8 61Z" fill="#ffffff"/>
<path d="M149.4 71.9999H133C133.1 72.5999 133.2 72.9999 133.4 73.5999C134.6 78.7999 137.9 82.3999 140.6 81.4999C142 80.9999 143 79.4999 143.5 77.5999L146 79.9999C144 81.8999 141.3 83.0999 138.3 83.0999C132.2 83.0999 127.3 78.0999 127.3 72.0999C127.3 66.0999 132.3 61.0999 138.3 61.0999C144.5 60.9999 149.4 65.7999 149.4 71.9999ZM143.4 70.6999L143.3 70.3999C142.1 65.1999 138.8 61.5999 136.1 62.4999C133.8 63.1999 132.5 66.5999 132.8 70.5999L143.4 70.6999Z" fill="#ffffff"/>
<path d="M0.699951 98.4999L0.899951 97.7999C0.999951 97.8999 1.09995 97.8999 1.39995 97.9999C1.59995 98.0999 1.89995 98.1999 2.09995 98.1999C2.39995 98.2999 2.69995 98.2999 2.89995 98.2999C3.39995 98.2999 3.59995 98.1999 3.89995 97.9999C4.19995 97.7999 4.29995 97.4999 4.29995 97.2999C4.29995 96.9999 4.19995 96.7999 4.09995 96.6999C3.89995 96.4999 3.69995 96.3999 3.49995 96.2999C3.29995 96.1999 3.09995 96.0999 2.89995 95.9999C2.39995 95.7999 2.09995 95.5999 1.79995 95.3999C1.49995 95.1999 1.19995 94.8999 1.09995 94.6999C0.899951 94.3999 0.799951 94.0999 0.799951 93.7999C0.799951 93.3999 0.899951 93.0999 1.19995 92.8999C1.49995 92.6999 1.69995 92.3999 1.99995 92.2999C2.39995 92.1999 2.69995 92.0999 3.19995 92.0999C3.59995 92.0999 3.89995 92.0999 4.29995 92.1999C4.69995 92.2999 4.89995 92.3999 4.99995 92.3999L4.79995 93.0999C4.69995 92.9999 4.59995 92.9999 4.39995 92.8999C4.19995 92.7999 3.99995 92.7999 3.79995 92.7999C3.59995 92.7999 3.39995 92.6999 3.09995 92.6999C2.59995 92.6999 2.29995 92.7999 1.99995 92.9999C1.69995 93.1999 1.59995 93.3999 1.59995 93.6999C1.59995 94.0999 1.69995 94.3999 1.99995 94.4999C2.29995 94.5999 2.59995 94.8999 2.89995 95.0999C3.19995 95.2999 3.59995 95.3999 3.89995 95.5999C4.19995 95.7999 4.59995 95.9999 4.69995 96.2999C4.89995 96.5999 5.09995 96.8999 5.09995 97.1999C5.09995 97.7999 4.89995 98.1999 4.39995 98.5999C3.89995 98.9999 3.39995 99.0999 2.69995 99.0999C2.39995 99.0999 2.09995 99.0999 1.89995 98.9999C1.59995 98.8999 1.29995 98.8999 1.19995 98.7999C1.19995 98.6999 0.699951 98.5999 0.699951 98.4999Z" fill="#ffffff"/>
<path d="M13 98.9999C12.7 98.9999 12.4 98.9999 12.3 98.8999C12 98.7999 11.8 98.5999 11.7 98.3999C11.5 98.0999 11.5 97.7999 11.5 97.2999V92.8999H10.6V92.2999C10.8 92.1999 11.1 92.1999 11.3 92.0999C11.5 92.0999 11.7 91.9999 11.7 91.7999C11.7 91.6999 11.8 91.5999 11.8 91.3999C11.8 91.1999 11.9 90.9999 11.9 90.8999C11.9 90.6999 12 90.4999 12 90.3999H12.6V91.9999H14.8V92.6999H12.6V96.4999C12.6 96.9999 12.6 97.1999 12.7 97.4999C12.8 97.6999 12.9 97.8999 13 97.8999C13.1 97.9999 13.3 97.9999 13.6 97.9999C13.7 97.9999 13.9 97.9999 14.1 97.8999C14.3 97.8999 14.5 97.7999 14.6 97.7999C14.7 97.7999 14.9 97.6999 15 97.5999L15.2 98.1999C15.1 98.2999 14.9 98.3999 14.7 98.4999C14.5 98.5999 14.2 98.6999 14 98.6999C13.4 98.9999 13.2 98.9999 13 98.9999Z" fill="#ffffff"/>
<path d="M22.3999 98.9999C21.8999 98.9999 21.6999 98.8999 21.3999 98.7999C21.0999 98.5999 20.8999 98.3999 20.7999 98.1999C20.6999 97.8999 20.5999 97.5999 20.4999 97.2999C20.3999 96.9999 20.3999 96.5999 20.3999 96.0999V92.0999H21.3999V96.0999C21.3999 96.6999 21.3999 97.0999 21.4999 97.3999C21.5999 97.6999 21.6999 97.8999 21.9999 97.9999C22.1999 98.0999 22.4999 98.1999 22.7999 98.1999C22.9999 98.1999 23.2999 98.1999 23.4999 98.0999C23.7999 97.9999 23.9999 97.8999 24.1999 97.7999C24.3999 97.6999 24.5999 97.5999 24.6999 97.4999V92.0999H25.6999V98.8999H25.2999C25.0999 98.8999 24.9999 98.8999 24.8999 98.7999C24.7999 98.7999 24.7999 98.5999 24.7999 98.3999V97.7999V97.9999C24.5999 98.1999 24.2999 98.2999 24.0999 98.3999C23.7999 98.4999 23.4999 98.5999 23.2999 98.6999C22.8999 98.7999 22.6999 98.9999 22.3999 98.9999Z" fill="#ffffff"/>
<path d="M34.3 99C33.8 99 33.4 98.9 33 98.6C32.6 98.3 32.3 98 32 97.6C31.7 97.1 31.6 96.5 31.6 95.7C31.6 95 31.8 94.3 32.1 93.7C32.4 93.1 32.8 92.7 33.3 92.4C33.8 92.1 34.4 91.9 35.1 91.9C35.6 91.9 35.9 92 36.2 92.1C36.5 92.2 36.7 92.3 36.8 92.4L36.4 93.1C36.3 93 36.1 92.9 35.8 92.8C35.5 92.7 35.2 92.7 34.9 92.7C34.4 92.7 34.1 92.8 33.8 93.1C33.4 93.3 33.1 93.7 33 94C32.8 94.5 32.7 94.9 32.7 95.6C32.7 96.4 32.9 97.1 33.2 97.6C33.5 98.1 34 98.3 34.6 98.3C35 98.3 35.3 98.2 35.6 98C35.9 97.8 36.2 97.7 36.3 97.5L36.5 98C36.4 98.1 36.2 98.2 36 98.4C35.8 98.6 35.5 98.7 35.3 98.8C35.1 99 34.7 99 34.3 99ZM36.4 98.9V98H36.3V93V92V89.2H37.2V99.1H36.4V98.9Z" fill="#ffffff"/>
<path d="M44.3 90.7C44.1 90.7 44 90.6 43.8 90.5C43.6 90.4 43.6 90.2 43.6 90C43.6 89.8 43.6 89.7 43.7 89.6C43.8 89.5 43.9 89.4 44 89.3C44.1 89.2 44.2 89.2 44.4 89.2C44.6 89.2 44.8 89.3 44.9 89.4C45 89.5 45.1 89.7 45.1 89.9C45.1 90.1 45 90.3 44.9 90.5C44.7 90.6 44.5 90.7 44.3 90.7ZM43.8 98.9V92.2H44.8V98.9H43.8Z" fill="#ffffff"/>
<path d="M53.8999 99C53.2999 99 52.8999 98.9 52.4999 98.7C52.0999 98.5 51.7999 98.2 51.5999 97.9C51.3999 97.6 51.1999 97.2 51.0999 96.8C50.9999 96.3 50.8999 95.9 50.8999 95.4C50.8999 94.7 51.0999 94.1 51.3999 93.5C51.6999 93 52.0999 92.7 52.4999 92.4C52.9999 92.1 53.3999 92 54.0999 92C54.7999 92 55.3999 92.2 55.7999 92.5C56.2999 92.9 56.4999 93.2 56.6999 93.8C56.8999 94.4 56.9999 94.9 56.9999 95.6C56.9999 96.3 56.7999 96.9 56.5999 97.5C56.3999 98.1 55.8999 98.4 55.4999 98.6C55.0999 98.9 54.4999 99 53.8999 99ZM53.8999 98.3C54.5999 98.3 54.9999 98 55.3999 97.6C55.7999 97.1 55.9999 96.5 55.9999 95.6C55.9999 95 55.8999 94.6 55.7999 94.2C55.6999 93.7 55.3999 93.5 55.0999 93.2C54.7999 92.9 54.3999 92.8 53.9999 92.8C53.2999 92.8 52.8999 93 52.4999 93.5C52.0999 94 51.8999 94.6 51.8999 95.5C51.8999 96.1 51.9999 96.5 52.0999 96.9C52.1999 97.4 52.4999 97.6 52.7999 97.9C53.0999 98.1 53.4999 98.3 53.8999 98.3Z" fill="#ffffff"/>
<path d="M66.9 13V7.2H67.6L67.7 8L67.8 8.4V13.1L66.9 13ZM67.8 8.6L67.7 8C67.8 7.9 67.9 7.8 68.1 7.6C68.3 7.4 68.5 7.3 68.8 7.2C69.1 7.1 69.4 7 69.5 7C69.6 7 69.8 7 69.9 7C70 7 70.1 7 70.1 7.1V7.9C70 7.9 70 7.8 69.9 7.8C69.8 7.8 69.6 7.8 69.4 7.8C69.1 7.8 68.9 7.8 68.7 7.9C68.5 8 68.3 8.1 68.1 8.2C68 8.4 67.9 8.5 67.8 8.6Z" fill="#ffffff"/>
<path d="M75.4 13.0999C74.6 13.0999 74 12.8 73.5 12.4C73 11.9 72.8 11.2 72.8 10.2C72.8 9.59995 72.9 9.09995 73.1 8.59995C73.3 8.09995 73.6 7.79995 73.9 7.59995C74.3 7.29995 74.7 7.19995 75.3 7.19995C75.6 7.19995 75.9 7.19995 76.1 7.39995C76.4 7.49995 76.6 7.69995 76.8 7.89995C77 8.09995 77.1 8.39995 77.3 8.59995C77.5 8.79995 77.5 9.19995 77.5 9.49995C77.5 9.69995 77.5 9.89995 77.5 9.99995C77.5 10.1 77.5 10.3 77.5 10.4H73.4L73.5 9.79995H76.8C76.8 9.39995 76.8 9.09995 76.7 8.89995C76.6 8.59995 76.5 8.39995 76.2 8.19995C76 7.99995 75.7 7.89995 75.4 7.89995C75.1 7.89995 74.7 7.99995 74.5 8.19995C74.2 8.39995 74 8.69995 73.8 8.99995C73.6 9.29995 73.6 9.89995 73.6 10.5999C73.6 11.0999 73.7 11.4999 73.9 11.7999C74.1 12.0999 74.3 12.4 74.6 12.5C74.9 12.6 75.2 12.7 75.5 12.7C75.7 12.7 75.9 12.6999 76.1 12.5999C76.3 12.5999 76.5 12.5 76.7 12.4C76.9 12.3 77 12.3 77.2 12.2L77.4 12.7999C77.3 12.8999 77.1 12.9999 76.8 13.0999C76.5 13.1999 76.3 13.2999 76.1 13.2999C75.8 13.0999 75.7 13.0999 75.4 13.0999Z" fill="#ffffff"/>
<path d="M81.2001 13V4.5H82.0001V13H81.2001Z" fill="#ffffff"/>
<path d="M87.5001 13.1C87.1001 13.1 86.8001 13 86.6001 12.9C86.3001 12.8 86.1001 12.6 85.9001 12.3C85.7001 12 85.7001 11.7 85.7001 11.5C85.7001 11.1 85.8001 10.8 86.0001 10.6C86.2001 10.3 86.6001 10.1 86.9001 9.9C87.1001 9.8 87.4001 9.7 87.6001 9.7C87.9001 9.6 88.2001 9.6 88.4001 9.6C88.6001 9.6 88.9001 9.6 89.1001 9.6L89.3001 9.9L89.1001 10.2C89.0001 10.2 88.8001 10.2 88.5001 10.2C88.3001 10.2 88.0001 10.2 87.8001 10.3C87.6001 10.4 87.3001 10.4 87.2001 10.5C86.9001 10.6 86.6001 10.8 86.5001 10.9C86.3001 11.1 86.3001 11.3 86.3001 11.6C86.3001 11.9 86.4001 12.2 86.6001 12.3C86.8001 12.5 87.1001 12.6 87.5001 12.6C87.8001 12.6 88.0001 12.6 88.2001 12.5C88.4001 12.4 88.6001 12.3 88.8001 12.3C89.0001 12.3 89.1001 12.1 89.1001 12.1L89.3001 12.3L89.2001 12.7C89.0001 12.9 88.8001 13 88.5001 13.2C88.3001 13 87.9001 13.1 87.5001 13.1ZM90.2001 13H89.4001V12.2H89.3001V8.9C89.3001 8.4 89.2001 8.2 88.9001 8C88.7001 7.8 88.3001 7.8 87.9001 7.8C87.7001 7.8 87.5001 7.8 87.2001 7.9C87.0001 8 86.7001 8 86.6001 8.1C86.4001 8.2 86.2001 8.3 86.1001 8.3L86.0001 7.6C86.1001 7.6 86.2001 7.5 86.4001 7.4C86.6001 7.3 86.9001 7.2 87.1001 7.1C87.4001 7 87.6001 7 88.0001 7C88.4001 7 88.7001 7.1 89.0001 7.2C89.3001 7.3 89.6001 7.5 89.7001 7.8C89.8001 8.1 90.0001 8.5 90.0001 8.9V13H90.2001Z" fill="#ffffff"/>
<path d="M93.4 13.0001L95.6 9.9001V10.2001L93.4 7.2001H94.3L95.7 9.3001L96.1 9.9001H95.8L96.1 9.2001L97.5 7.1001H98.4L96.2 10.1001V9.8001L98.4 12.9001H97.4L96 10.8001L95.6 10.1001H96L95.6 10.8001L94.3 12.9001L93.4 13.0001Z" fill="#ffffff"/>
<path d="M109.9 12.2C110 12.1 110.1 12.1 110.1 12C110.1 11.9 110.1 12 110.2 12C110.4 11.9 110.5 11.6999 110.7 11.5999C110.8 11.3999 110.9 11.2999 111 11.0999C111.1 10.8999 111.1 10.7 111.1 10.4C111.1 10.1 111.1 9.89995 111 9.69995C110.9 9.49995 110.9 9.29995 110.9 9.29995H111.6C111.6 9.39995 111.7 9.49995 111.7 9.69995C111.7 9.89995 111.8 10.1 111.8 10.4C111.8 10.9 111.7 11.2 111.5 11.5C111.3 11.8 111 12.1999 110.8 12.2999C110.8 12.2999 110.8 12.3 110.7 12.4C110.7 12.4 110.7 12.4 110.6 12.5C110.5 12.6 110.6 12.4999 110.5 12.5999C110.2 12.7999 109.9 12.9 109.7 13C109.3 13.1 109 13.2 108.7 13.2C108 13.2 107.6 13.1 107.1 12.9C106.6 12.7 106.3 12.5 106 12.2C105.7 11.9 105.6 11.4999 105.6 11.0999C105.6 10.6999 105.7 10.4 105.9 10.2C106.1 9.89995 106.4 9.69995 106.6 9.49995C106.8 9.29995 107.2 9.09995 107.5 8.99995C107.5 8.99995 107.5 8.99995 107.6 8.99995H107.7H107.8C108.2 8.89995 108.5 8.69995 108.7 8.49995C108.9 8.29995 109.2 8.09995 109.4 7.79995C109.6 7.49995 109.7 7.19995 109.7 6.89995C109.7 6.69995 109.7 6.49995 109.6 6.29995C109.5 6.09995 109.4 5.99995 109.2 5.89995C109 5.79995 108.8 5.69995 108.5 5.69995C108.1 5.69995 107.8 5.79995 107.7 5.99995C107.6 6.19995 107.3 6.49995 107.3 6.79995C107.3 6.99995 107.3 7.19995 107.4 7.39995C107.5 7.59995 107.5 7.69995 107.6 7.89995C107.7 8.09995 107.8 8.19995 108 8.39995C108.1 8.59995 108.3 8.79995 108.5 8.99995L108.6 9.19995C108.7 9.29995 108.9 9.59995 109.1 9.79995C109.3 10.0999 109.5 10.3 109.7 10.5C109.9 10.8 110.2 11.1 110.4 11.2C110.6 11.4 110.8 11.6999 111 11.7999C111.2 11.9999 111.4 12.1999 111.6 12.2999C111.8 12.3999 112 12.5 112.2 12.5C112.4 12.5 112.6 12.5999 112.8 12.5999V13.0999C112.7 13.0999 112.6 13.1 112.5 13.2C112.4 13.2 112.3 13.2 112.1 13.2C111.8 13.2 111.5 13.1 111.3 13C111.1 12.9 110.8 12.7 110.6 12.4C110.4 12.2 110.2 12 110 11.7C109.8 11.4 109.5 11.1 109.3 10.9C109.1 10.7 108.8 10.2999 108.6 10.0999C108.4 9.79995 108.2 9.59995 108.1 9.39995L108 9.19995C107.8 8.99995 107.6 8.69995 107.5 8.49995C107.3 8.19995 107.2 7.99995 107 7.79995C106.9 7.49995 106.8 7.19995 106.8 6.99995C106.8 6.39995 107 5.99995 107.4 5.69995C107.8 5.39995 108.2 5.19995 108.9 5.19995C109.3 5.19995 109.6 5.29995 109.9 5.49995C110.2 5.69995 110.4 5.89995 110.6 6.19995C110.8 6.49995 110.8 6.79995 110.8 6.99995C110.8 7.19995 110.7 7.69995 110.6 7.79995C110.5 8.09995 110.3 8.29995 110.1 8.49995C109.9 8.69995 109.7 8.89995 109.4 9.09995C109.1 9.29995 108.8 9.39995 108.6 9.59995H108.5C108.4 9.59995 108.4 9.59995 108.3 9.59995C108.2 9.59995 108.2 9.59995 108.2 9.59995C107.9 9.69995 107.7 9.89995 107.5 9.99995C107.3 10.2 107.1 10.2999 106.9 10.5999C106.8 10.7999 106.7 11.0999 106.7 11.2999C106.7 11.5999 106.8 11.8 106.9 12C107.1 12.2 107.3 12.3999 107.6 12.5999C108 12.7999 108.3 12.7999 108.9 12.7999C109.2 12.7999 109.4 12.8 109.6 12.7C109.5 12.4 109.7 12.3 109.9 12.2Z" fill="#ffffff"/>
<path d="M119.3 10.2001C119.3 9.6001 119.4 9.1001 119.6 8.6001C119.8 8.1001 120.2 7.8001 120.5 7.5001C120.9 7.2001 121.4 7.1001 122 7.1001C122.4 7.1001 122.7 7.1001 122.9 7.2001C123.2 7.3001 123.4 7.3001 123.5 7.4001L123.3 8.1001C123.1 8.0001 122.9 7.9001 122.7 7.8001C122.5 7.7001 122.2 7.7001 122 7.7001C121.8 7.7001 121.3 7.8001 121.1 8.0001C120.8 8.2001 120.6 8.4001 120.4 8.7001C120.2 9.0001 120.1 9.4001 120.1 10.0001C120.1 10.6001 120.2 11.0001 120.3 11.4001C120.5 11.8001 120.7 12.1001 121 12.2001C121.3 12.4001 121.6 12.5001 121.9 12.5001C122.2 12.5001 122.6 12.4001 122.8 12.3001C123.1 12.2001 123.3 12.1001 123.4 12.0001L123.6 12.5001C123.4 12.7001 123.1 12.8001 122.9 12.9001C122.6 13.0001 122.2 13.1001 121.9 13.1001C121.3 13.1001 120.9 13.0001 120.5 12.7001C120.1 12.4001 119.8 12.1001 119.7 11.7001C119.4 11.3001 119.3 10.8001 119.3 10.2001Z" fill="#ffffff"/>
<path d="M127.1 13V4.5H127.9V7.1L127.8 8C127.9 7.9 128.1 7.7 128.4 7.6C128.6 7.5 128.9 7.3 129.1 7.2C129.4 7.1 129.7 7.1 129.9 7C130.6 7 131 7.2 131.3 7.6C131.6 8 131.7 8.6 131.7 9.6V13H130.9V9.4C130.9 8.7 130.8 8.3 130.6 8.1C130.4 7.8 130 7.7 129.6 7.7C129.3 7.7 129 7.8 128.7 7.9C128.4 8.1 128.1 8.2 127.9 8.4V12.9L127.1 13Z" fill="#ffffff"/>
<path d="M136.3 5.9C136.1 5.9 136 5.8 135.9 5.7C135.8 5.6 135.7 5.4 135.7 5.2C135.7 5.1 135.7 4.9 135.8 4.8C135.9 4.7 136 4.6 136.1 4.6C136.2 4.5 136.3 4.5 136.4 4.5C136.6 4.5 136.8 4.6 136.8 4.7C136.9 4.8 136.9 5 136.9 5.1C136.9 5.3 136.8 5.5 136.7 5.6C136.6 5.8 136.5 5.9 136.3 5.9ZM136 13V7.2H136.8V13H136Z" fill="#ffffff"/>
<path d="M140.9 13V4.5H141.7V13H140.9Z" fill="#ffffff"/>
<path d="M145.9 13V4.5H146.7V13H145.9Z" fill="#ffffff"/>
<path d="M60 85C40 85 20 85 0 85C0 84.4 0 84 0 83.4C0 65.7 0 48 0 30.2C0 13.5 13.9 2.26507e-05 30.5 0.400023C45.3 0.700023 57.5 11.4 59.6 26.1C60 28.9 59.9 31.7 59.9 34.5C59.9 50.9 59.9 67.4 59.9 83.8C60 84.2 60 84.6 60 85ZM19.1 46.8C19.6 46.4 19.9 46.1 20.3 45.8C21.5 45 22.2 45.1 22.4 46.5C22.7 48.5 22.7 50.4 22.5 52.3C22.3 54.5 21.7 56.5 21.2 58.9C22.2 58.9 23.2 58.9 24 58.9C26 58.9 26.8 59.8 26.8 61.7C26.8 66.6 26.8 71.4 26.8 76.3C26.8 78.8 26.4 79.3 24 79.9C24.5 82.1 24.5 82.1 26.6 82.1C34.6 82.1 42.5 82.1 50.5 82.1C52.7 82.1 54.7 82.1 57.1 82.1C57.1 80 57.1 78.1 57.1 76.1C57.1 62.3 57.1 48.5 57.1 34.7C57.1 30.9 57.1 27 56.1 23.2C52.3 8.80002 37.1 0.200024 22.8 4.20002C10.8 7.60002 2.8 18 2.7 30.4C2.6 47.2 2.7 64 2.7 80.8C2.7 81.2 2.8 81.6 2.8 82C3 82.1 3.1 82.2 3.1 82.2C5.4 82.2 7.8 82.2 10.1 82.2C12.2 82.2 12.3 82.1 12.5 80C10.2 79.4 9.8 79 9.8 76.5C9.8 71.6 9.8 66.8 9.8 61.9C9.8 59.8 10.6 59 12.8 59C13.7 59 14.7 59 15.8 59C15.3 56.8 14.9 54.7 14.5 52.5C14.4 52 14.7 51.5 14.8 51C13.7 48.1 13.6 45.2 15 42.2C17 43.2 18.3 44.8 19.1 46.8ZM25.3 65.6C25.3 64.2 25.4 62.8 25.2 61.4C25.2 61.1 24.5 60.6 24.3 60.6C20.4 60.5 16.5 60.5 12.6 60.6C12.2 60.6 11.7 61.2 11.7 61.5C11.6 62.8 11.6 64.1 11.6 65.5C16.2 65.6 20.7 65.6 25.3 65.6ZM11.5 73.3C11.5 74.6 11.5 75.7 11.5 77C11.5 77.7 11.8 78.1 12.6 78.1C16.4 78.1 20.3 78.1 24.2 78C24.6 78 25.1 77.5 25.1 77.2C25.2 75.9 25.2 74.6 25.2 73.3C20.6 73.3 16.2 73.3 11.5 73.3ZM11.6 71.6C16.2 71.6 20.7 71.6 25.3 71.6C25.3 70.1 25.3 68.7 25.3 67.3C20.7 67.3 16.2 67.3 11.6 67.3C11.6 68.7 11.6 70.2 11.6 71.6ZM16.8 57.7C17.8 57.7 18.9 57.7 19.9 57.7C20.2 57.7 20.6 57.4 20.6 57.2C21 55.6 21.3 54.1 21.6 52.4C19.6 52.4 17.8 52.4 15.8 52.4C16 54.2 16.4 55.9 16.8 57.7ZM22.8 82.1C22.5 79.9 22.4 79.8 20.4 79.8C19.2 79.8 18 79.8 16.8 79.8C14.6 79.8 14.6 80 14.3 82.1C17 82.1 19.9 82.1 22.8 82.1ZM18.6 51.1C18.6 48.2 17.9 45.8 15.5 43.8C14.8 45.8 14.9 47.6 15.6 49.4C16.4 51.3 16.5 51.3 18.6 51.1ZM21.3 46.6C19.3 47.7 19.8 49.5 19.9 51.1C21.3 51.2 22.1 48.9 21.3 46.6Z" fill="#ffffff"/>
<path d="M30.1001 24.3001C34.3001 24.3001 37.6001 27.6001 37.6001 31.8001C37.6001 36.0001 34.2001 39.4001 30.0001 39.4001C25.9001 39.4001 22.6001 36.0001 22.6001 31.8001C22.5001 27.5001 25.7001 24.2001 30.1001 24.3001ZM29.2001 31.0001C29.2001 29.2001 29.2001 27.5001 29.2001 25.9001C26.6001 26.1001 24.1001 28.5001 24.1001 31.0001C24.4001 31.0001 24.6001 31.1001 24.8001 31.1001C26.2001 31.0001 27.6001 31.0001 29.2001 31.0001ZM36.0001 30.9001C36.1001 28.5001 33.0001 25.6001 30.9001 25.8001C30.9001 27.5001 30.9001 29.2001 30.9001 30.9001C32.6001 30.9001 34.2001 30.9001 36.0001 30.9001ZM30.8001 37.7001C33.7001 37.2001 36.0001 34.9001 35.9001 32.6001C34.2001 32.6001 32.5001 32.6001 30.8001 32.6001C30.8001 34.1001 30.8001 35.4001 30.8001 36.8001C30.7001 37.0001 30.8001 37.3001 30.8001 37.7001ZM24.1001 32.5001C24.3001 35.2001 26.6001 37.6001 29.2001 37.6001C29.2001 35.9001 29.2001 34.2001 29.2001 32.5001C27.4001 32.5001 25.7001 32.5001 24.1001 32.5001Z" fill="#ffffff"/>
<path d="M149.9 92.3999H66.1V98.9999H149.9V92.3999Z" fill="#ffffff"/>
</svg>
