<svg xmlns="http://www.w3.org/2000/svg" xmlns:xlink="http://www.w3.org/1999/xlink" zoomAndPan="magnify" preserveAspectRatio="xMidYMid meet" version="1.0" viewBox="0 0 112 112"><defs><g/><clipPath id="76ffeccaed"><path d="M 0 0 L 112.003906 0 L 112.003906 112.003906 L 0 112.003906 Z M 0 0 " clip-rule="nonzero"/></clipPath></defs><g clip-path="url(#76ffeccaed)"><path fill="#ffffff" d="M 0 0 L 112.003906 0 L 112.003906 112.003906 L 0 112.003906 Z M 0 0 " fill-opacity="1" fill-rule="nonzero"/><path fill="#ffffff" d="M 0 0 L 112.003906 0 L 112.003906 112.003906 L 0 112.003906 Z M 0 0 " fill-opacity="1" fill-rule="nonzero"/></g><path stroke-linecap="butt" transform="matrix(-0.00221859, -0.223993, 0.223993, -0.00221859, 42.49526, 59.943399)" fill="none" stroke-linejoin="miter" d="M -0.00599282 1.503426 L 59.723033 1.502093 " stroke="#ffa62b" stroke-width="3" stroke-opacity="1" stroke-miterlimit="4"/><path stroke-linecap="butt" transform="matrix(-0.224002, -0.000984476, 0.000984476, -0.224002, 58.679688, 60.065824)" fill="none" stroke-linejoin="miter" d="M 0.00658031 1.497078 L 71.922698 1.494903 " stroke="#ffa62b" stroke-width="3" stroke-opacity="1" stroke-miterlimit="4"/><path stroke-linecap="butt" transform="matrix(0.158395, -0.158395, 0.158395, 0.158395, 42.331272, 46.600273)" fill="none" stroke-linejoin="miter" d="M 0.0106546 1.498484 L 50.517287 1.498484 " stroke="#ffa62b" stroke-width="3" stroke-opacity="1" stroke-miterlimit="4"/><path stroke-linecap="butt" transform="matrix(0.158395, 0.158395, -0.158395, 0.158395, 50.515545, 38.363425)" fill="none" stroke-linejoin="miter" d="M -0.00020162 1.503643 L 50.506431 1.503643 " stroke="#ffa62b" stroke-width="3" stroke-opacity="1" stroke-miterlimit="4"/><g fill="#ffa62b" fill-opacity="1"><g transform="translate(44.733606, 51.797792)"><g><path d="M 1.796875 -2.28125 C 1.785156 -2.28125 1.773438 -2.273438 1.765625 -2.265625 C 1.765625 -2.253906 1.757812 -2.238281 1.75 -2.21875 C 1.738281 -2.207031 1.726562 -2.1875 1.71875 -2.15625 C 1.71875 -2.125 1.71875 -2.078125 1.71875 -2.015625 L 1.71875 -0.28125 C 1.71875 -0.226562 1.71875 -0.1875 1.71875 -0.15625 C 1.726562 -0.125 1.738281 -0.0976562 1.75 -0.078125 C 1.757812 -0.0546875 1.765625 -0.0390625 1.765625 -0.03125 C 1.773438 -0.03125 1.785156 -0.03125 1.796875 -0.03125 L 1.796875 0 L 1.40625 0 L 1.40625 -0.03125 C 1.414062 -0.03125 1.421875 -0.03125 1.421875 -0.03125 C 1.429688 -0.0390625 1.441406 -0.0546875 1.453125 -0.078125 C 1.460938 -0.0976562 1.46875 -0.125 1.46875 -0.15625 C 1.476562 -0.1875 1.484375 -0.226562 1.484375 -0.28125 L 1.484375 -1.359375 L 0.40625 -1.359375 L 0.40625 -0.28125 C 0.40625 -0.226562 0.40625 -0.1875 0.40625 -0.15625 C 0.414062 -0.125 0.425781 -0.0976562 0.4375 -0.078125 C 0.445312 -0.0546875 0.453125 -0.0390625 0.453125 -0.03125 C 0.460938 -0.03125 0.472656 -0.03125 0.484375 -0.03125 L 0.484375 0 L 0.09375 0 L 0.09375 -0.03125 C 0.101562 -0.03125 0.109375 -0.03125 0.109375 -0.03125 C 0.117188 -0.0390625 0.128906 -0.0546875 0.140625 -0.078125 C 0.148438 -0.0976562 0.15625 -0.125 0.15625 -0.15625 C 0.164062 -0.1875 0.171875 -0.226562 0.171875 -0.28125 L 0.171875 -2.015625 C 0.171875 -2.078125 0.164062 -2.125 0.15625 -2.15625 C 0.15625 -2.1875 0.148438 -2.207031 0.140625 -2.21875 C 0.128906 -2.238281 0.117188 -2.253906 0.109375 -2.265625 C 0.109375 -2.273438 0.101562 -2.28125 0.09375 -2.28125 L 0.09375 -2.296875 L 0.484375 -2.296875 L 0.484375 -2.28125 C 0.472656 -2.28125 0.460938 -2.273438 0.453125 -2.265625 C 0.453125 -2.253906 0.445312 -2.238281 0.4375 -2.21875 C 0.425781 -2.207031 0.414062 -2.1875 0.40625 -2.15625 C 0.40625 -2.125 0.40625 -2.078125 0.40625 -2.015625 L 0.40625 -1.375 L 1.484375 -1.375 L 1.484375 -2.015625 C 1.484375 -2.078125 1.476562 -2.125 1.46875 -2.15625 C 1.46875 -2.1875 1.460938 -2.207031 1.453125 -2.21875 C 1.441406 -2.238281 1.429688 -2.253906 1.421875 -2.265625 C 1.421875 -2.273438 1.414062 -2.28125 1.40625 -2.28125 L 1.40625 -2.296875 L 1.796875 -2.296875 Z M 1.796875 -2.28125 "/></g></g></g><g fill="#ffa62b" fill-opacity="1"><g transform="translate(46.627943, 51.797792)"><g><path d="M 1.515625 -0.4375 C 1.484375 -0.5 1.445312 -0.566406 1.40625 -0.640625 C 1.375 -0.710938 1.328125 -0.773438 1.265625 -0.828125 C 1.210938 -0.878906 1.148438 -0.921875 1.078125 -0.953125 C 1.015625 -0.992188 0.941406 -1.019531 0.859375 -1.03125 C 0.828125 -1.03125 0.796875 -1.03125 0.765625 -1.03125 C 0.734375 -1.03125 0.703125 -1.019531 0.671875 -1 C 0.640625 -0.988281 0.609375 -0.972656 0.578125 -0.953125 C 0.554688 -0.941406 0.539062 -0.914062 0.53125 -0.875 L 0.375 -0.40625 C 0.332031 -0.28125 0.3125 -0.1875 0.3125 -0.125 C 0.3125 -0.0625 0.332031 -0.03125 0.375 -0.03125 L 0.375 0 L 0.09375 0 L 0.09375 -0.03125 C 0.113281 -0.03125 0.128906 -0.0351562 0.140625 -0.046875 C 0.160156 -0.0546875 0.179688 -0.078125 0.203125 -0.109375 C 0.222656 -0.140625 0.242188 -0.175781 0.265625 -0.21875 C 0.296875 -0.269531 0.320312 -0.332031 0.34375 -0.40625 L 0.921875 -2.125 L 0.859375 -2.296875 L 1.109375 -2.296875 L 1.75 -0.46875 C 1.769531 -0.414062 1.789062 -0.359375 1.8125 -0.296875 C 1.832031 -0.242188 1.847656 -0.195312 1.859375 -0.15625 C 1.878906 -0.113281 1.894531 -0.0820312 1.90625 -0.0625 C 1.925781 -0.0390625 1.941406 -0.03125 1.953125 -0.03125 L 1.953125 0 L 1.578125 0 L 1.578125 -0.03125 C 1.585938 -0.03125 1.585938 -0.0625 1.578125 -0.125 C 1.578125 -0.1875 1.5625 -0.257812 1.53125 -0.34375 Z M 0.578125 -0.984375 C 0.609375 -1.015625 0.648438 -1.035156 0.703125 -1.046875 C 0.765625 -1.054688 0.816406 -1.0625 0.859375 -1.0625 C 0.984375 -1.050781 1.09375 -1.007812 1.1875 -0.9375 C 1.28125 -0.863281 1.359375 -0.773438 1.421875 -0.671875 L 0.9375 -2.078125 Z M 0.578125 -0.984375 "/></g></g></g><g fill="#ffa62b" fill-opacity="1"><g transform="translate(48.686431, 51.797792)"><g><path d="M 0.484375 0 L 0.09375 0 L 0.09375 -0.03125 C 0.101562 -0.03125 0.109375 -0.03125 0.109375 -0.03125 C 0.117188 -0.0390625 0.128906 -0.0546875 0.140625 -0.078125 C 0.148438 -0.0976562 0.15625 -0.125 0.15625 -0.15625 C 0.164062 -0.1875 0.171875 -0.226562 0.171875 -0.28125 L 0.171875 -2.015625 C 0.171875 -2.078125 0.164062 -2.125 0.15625 -2.15625 C 0.15625 -2.1875 0.148438 -2.207031 0.140625 -2.21875 C 0.128906 -2.238281 0.117188 -2.253906 0.109375 -2.265625 C 0.109375 -2.273438 0.101562 -2.28125 0.09375 -2.28125 L 0.09375 -2.296875 L 0.125 -2.296875 C 0.226562 -2.304688 0.332031 -2.316406 0.4375 -2.328125 C 0.539062 -2.335938 0.640625 -2.34375 0.734375 -2.34375 C 0.898438 -2.34375 1.039062 -2.328125 1.15625 -2.296875 C 1.269531 -2.265625 1.359375 -2.222656 1.421875 -2.171875 C 1.492188 -2.128906 1.546875 -2.070312 1.578125 -2 C 1.609375 -1.9375 1.625 -1.867188 1.625 -1.796875 C 1.625 -1.710938 1.609375 -1.640625 1.578125 -1.578125 C 1.546875 -1.515625 1.492188 -1.457031 1.421875 -1.40625 C 1.359375 -1.351562 1.269531 -1.3125 1.15625 -1.28125 C 1.039062 -1.257812 0.898438 -1.25 0.734375 -1.25 L 0.40625 -1.25 L 0.40625 -0.28125 C 0.40625 -0.226562 0.40625 -0.1875 0.40625 -0.15625 C 0.414062 -0.125 0.425781 -0.0976562 0.4375 -0.078125 C 0.445312 -0.0546875 0.453125 -0.0390625 0.453125 -0.03125 C 0.460938 -0.03125 0.472656 -0.03125 0.484375 -0.03125 Z M 0.734375 -1.28125 C 0.804688 -1.28125 0.878906 -1.285156 0.953125 -1.296875 C 1.035156 -1.316406 1.109375 -1.34375 1.171875 -1.375 C 1.234375 -1.414062 1.285156 -1.46875 1.328125 -1.53125 C 1.378906 -1.601562 1.40625 -1.691406 1.40625 -1.796875 C 1.40625 -1.898438 1.378906 -1.984375 1.328125 -2.046875 C 1.285156 -2.109375 1.234375 -2.160156 1.171875 -2.203125 C 1.109375 -2.242188 1.035156 -2.269531 0.953125 -2.28125 C 0.878906 -2.300781 0.804688 -2.3125 0.734375 -2.3125 C 0.679688 -2.3125 0.628906 -2.304688 0.578125 -2.296875 C 0.523438 -2.296875 0.46875 -2.296875 0.40625 -2.296875 L 0.40625 -1.28125 Z M 0.734375 -1.28125 "/></g></g></g><g fill="#ffa62b" fill-opacity="1"><g transform="translate(50.416614, 51.797792)"><g><path d="M 0.484375 0 L 0.09375 0 L 0.09375 -0.03125 C 0.101562 -0.03125 0.109375 -0.03125 0.109375 -0.03125 C 0.117188 -0.0390625 0.128906 -0.0546875 0.140625 -0.078125 C 0.148438 -0.0976562 0.15625 -0.125 0.15625 -0.15625 C 0.164062 -0.1875 0.171875 -0.226562 0.171875 -0.28125 L 0.171875 -2.015625 C 0.171875 -2.078125 0.164062 -2.125 0.15625 -2.15625 C 0.15625 -2.1875 0.148438 -2.207031 0.140625 -2.21875 C 0.128906 -2.238281 0.117188 -2.253906 0.109375 -2.265625 C 0.109375 -2.273438 0.101562 -2.28125 0.09375 -2.28125 L 0.09375 -2.296875 L 0.125 -2.296875 C 0.226562 -2.304688 0.332031 -2.316406 0.4375 -2.328125 C 0.539062 -2.335938 0.640625 -2.34375 0.734375 -2.34375 C 0.898438 -2.34375 1.039062 -2.328125 1.15625 -2.296875 C 1.269531 -2.265625 1.359375 -2.222656 1.421875 -2.171875 C 1.492188 -2.128906 1.546875 -2.070312 1.578125 -2 C 1.609375 -1.9375 1.625 -1.867188 1.625 -1.796875 C 1.625 -1.710938 1.609375 -1.640625 1.578125 -1.578125 C 1.546875 -1.515625 1.492188 -1.457031 1.421875 -1.40625 C 1.359375 -1.351562 1.269531 -1.3125 1.15625 -1.28125 C 1.039062 -1.257812 0.898438 -1.25 0.734375 -1.25 L 0.40625 -1.25 L 0.40625 -0.28125 C 0.40625 -0.226562 0.40625 -0.1875 0.40625 -0.15625 C 0.414062 -0.125 0.425781 -0.0976562 0.4375 -0.078125 C 0.445312 -0.0546875 0.453125 -0.0390625 0.453125 -0.03125 C 0.460938 -0.03125 0.472656 -0.03125 0.484375 -0.03125 Z M 0.734375 -1.28125 C 0.804688 -1.28125 0.878906 -1.285156 0.953125 -1.296875 C 1.035156 -1.316406 1.109375 -1.34375 1.171875 -1.375 C 1.234375 -1.414062 1.285156 -1.46875 1.328125 -1.53125 C 1.378906 -1.601562 1.40625 -1.691406 1.40625 -1.796875 C 1.40625 -1.898438 1.378906 -1.984375 1.328125 -2.046875 C 1.285156 -2.109375 1.234375 -2.160156 1.171875 -2.203125 C 1.109375 -2.242188 1.035156 -2.269531 0.953125 -2.28125 C 0.878906 -2.300781 0.804688 -2.3125 0.734375 -2.3125 C 0.679688 -2.3125 0.628906 -2.304688 0.578125 -2.296875 C 0.523438 -2.296875 0.46875 -2.296875 0.40625 -2.296875 L 0.40625 -1.28125 Z M 0.734375 -1.28125 "/></g></g></g><g fill="#ffa62b" fill-opacity="1"><g transform="translate(52.146796, 51.797792)"><g><path d="M 1.28125 -0.828125 L 1.28125 -0.28125 C 1.28125 -0.226562 1.28125 -0.1875 1.28125 -0.15625 C 1.289062 -0.125 1.300781 -0.0976562 1.3125 -0.078125 C 1.320312 -0.0546875 1.328125 -0.0390625 1.328125 -0.03125 C 1.335938 -0.03125 1.347656 -0.03125 1.359375 -0.03125 L 1.359375 0 L 0.96875 0 L 0.96875 -0.03125 C 0.976562 -0.03125 0.984375 -0.03125 0.984375 -0.03125 C 0.992188 -0.0390625 1.003906 -0.0546875 1.015625 -0.078125 C 1.023438 -0.0976562 1.03125 -0.125 1.03125 -0.15625 C 1.039062 -0.1875 1.046875 -0.226562 1.046875 -0.28125 L 1.046875 -0.765625 L 0.453125 -1.859375 C 0.421875 -1.910156 0.382812 -1.960938 0.34375 -2.015625 C 0.3125 -2.066406 0.28125 -2.109375 0.25 -2.140625 C 0.21875 -2.179688 0.1875 -2.210938 0.15625 -2.234375 C 0.132812 -2.265625 0.113281 -2.28125 0.09375 -2.28125 L 0.09375 -2.3125 L 0.59375 -2.3125 L 0.59375 -2.28125 C 0.570312 -2.28125 0.566406 -2.253906 0.578125 -2.203125 C 0.585938 -2.148438 0.613281 -2.078125 0.65625 -1.984375 L 1.265625 -0.859375 L 1.8125 -1.953125 C 1.8125 -1.972656 1.816406 -2 1.828125 -2.03125 C 1.847656 -2.070312 1.859375 -2.109375 1.859375 -2.140625 C 1.867188 -2.171875 1.867188 -2.203125 1.859375 -2.234375 C 1.859375 -2.265625 1.835938 -2.28125 1.796875 -2.28125 L 1.796875 -2.3125 L 2.078125 -2.3125 L 2.078125 -2.28125 C 2.054688 -2.28125 2.019531 -2.25 1.96875 -2.1875 C 1.925781 -2.132812 1.875 -2.035156 1.8125 -1.890625 Z M 1.28125 -0.828125 "/></g></g></g><g fill="#ffa62b" fill-opacity="1"><g transform="translate(54.330043, 51.797792)"><g/></g></g><g fill="#ffa62b" fill-opacity="1"><g transform="translate(55.062169, 51.797792)"><g><path d="M 1.96875 -2.03125 L 1.9375 -2.03125 C 1.882812 -2.082031 1.835938 -2.125 1.796875 -2.15625 C 1.753906 -2.1875 1.703125 -2.207031 1.640625 -2.21875 C 1.578125 -2.238281 1.503906 -2.253906 1.421875 -2.265625 C 1.347656 -2.273438 1.257812 -2.28125 1.15625 -2.28125 L 1.15625 -0.28125 C 1.15625 -0.226562 1.15625 -0.1875 1.15625 -0.15625 C 1.164062 -0.125 1.171875 -0.0976562 1.171875 -0.078125 C 1.179688 -0.0546875 1.191406 -0.0390625 1.203125 -0.03125 C 1.210938 -0.03125 1.21875 -0.03125 1.21875 -0.03125 L 1.21875 0 L 0.84375 0 L 0.84375 -0.03125 C 0.84375 -0.03125 0.847656 -0.03125 0.859375 -0.03125 C 0.867188 -0.0390625 0.875 -0.0546875 0.875 -0.078125 C 0.882812 -0.0976562 0.894531 -0.125 0.90625 -0.15625 C 0.914062 -0.1875 0.921875 -0.226562 0.921875 -0.28125 L 0.921875 -2.28125 C 0.804688 -2.28125 0.707031 -2.273438 0.625 -2.265625 C 0.550781 -2.253906 0.484375 -2.238281 0.421875 -2.21875 C 0.367188 -2.207031 0.316406 -2.1875 0.265625 -2.15625 C 0.222656 -2.125 0.175781 -2.082031 0.125 -2.03125 L 0.09375 -2.03125 L 0.09375 -2.296875 L 1.96875 -2.296875 Z M 1.96875 -2.03125 "/></g></g></g><g fill="#ffa62b" fill-opacity="1"><g transform="translate(57.130509, 51.797792)"><g><path d="M 0.484375 -2.28125 C 0.472656 -2.28125 0.460938 -2.273438 0.453125 -2.265625 C 0.453125 -2.253906 0.445312 -2.238281 0.4375 -2.21875 C 0.425781 -2.207031 0.414062 -2.1875 0.40625 -2.15625 C 0.40625 -2.125 0.40625 -2.078125 0.40625 -2.015625 L 0.40625 -0.28125 C 0.40625 -0.226562 0.40625 -0.1875 0.40625 -0.15625 C 0.414062 -0.125 0.425781 -0.0976562 0.4375 -0.078125 C 0.445312 -0.0546875 0.453125 -0.0390625 0.453125 -0.03125 C 0.460938 -0.03125 0.472656 -0.03125 0.484375 -0.03125 L 0.484375 0 L 0.09375 0 L 0.09375 -0.03125 C 0.101562 -0.03125 0.109375 -0.03125 0.109375 -0.03125 C 0.117188 -0.0390625 0.128906 -0.0546875 0.140625 -0.078125 C 0.148438 -0.0976562 0.15625 -0.125 0.15625 -0.15625 C 0.164062 -0.1875 0.171875 -0.226562 0.171875 -0.28125 L 0.171875 -2.015625 C 0.171875 -2.078125 0.164062 -2.125 0.15625 -2.15625 C 0.15625 -2.1875 0.148438 -2.207031 0.140625 -2.21875 C 0.128906 -2.238281 0.117188 -2.253906 0.109375 -2.265625 C 0.109375 -2.273438 0.101562 -2.28125 0.09375 -2.28125 L 0.09375 -2.296875 L 0.484375 -2.296875 Z M 0.484375 -2.28125 "/></g></g></g><g fill="#ffa62b" fill-opacity="1"><g transform="translate(57.714897, 51.797792)"><g><path d="M 2.671875 -2.296875 L 2.671875 -2.28125 C 2.671875 -2.28125 2.664062 -2.273438 2.65625 -2.265625 C 2.644531 -2.253906 2.632812 -2.238281 2.625 -2.21875 C 2.613281 -2.207031 2.601562 -2.1875 2.59375 -2.15625 C 2.59375 -2.125 2.59375 -2.078125 2.59375 -2.015625 L 2.59375 -0.28125 C 2.59375 -0.226562 2.59375 -0.1875 2.59375 -0.15625 C 2.601562 -0.125 2.613281 -0.0976562 2.625 -0.078125 C 2.632812 -0.0546875 2.644531 -0.0390625 2.65625 -0.03125 C 2.664062 -0.03125 2.671875 -0.03125 2.671875 -0.03125 L 2.671875 0 L 2.28125 0 L 2.28125 -0.03125 C 2.289062 -0.03125 2.296875 -0.03125 2.296875 -0.03125 C 2.304688 -0.0390625 2.316406 -0.0546875 2.328125 -0.078125 C 2.335938 -0.0976562 2.34375 -0.125 2.34375 -0.15625 C 2.351562 -0.1875 2.359375 -0.226562 2.359375 -0.28125 L 2.359375 -2.234375 L 1.375 -0.1875 L 1.46875 0 L 1.203125 0 L 0.25 -1.984375 L 0.25 -0.53125 C 0.25 -0.457031 0.253906 -0.390625 0.265625 -0.328125 C 0.273438 -0.265625 0.285156 -0.210938 0.296875 -0.171875 C 0.304688 -0.128906 0.316406 -0.09375 0.328125 -0.0625 C 0.347656 -0.0390625 0.363281 -0.03125 0.375 -0.03125 L 0.375 0 L 0.09375 0 L 0.09375 -0.03125 C 0.113281 -0.03125 0.128906 -0.0390625 0.140625 -0.0625 C 0.148438 -0.09375 0.160156 -0.128906 0.171875 -0.171875 C 0.191406 -0.210938 0.203125 -0.265625 0.203125 -0.328125 C 0.210938 -0.390625 0.21875 -0.457031 0.21875 -0.53125 L 0.21875 -2.046875 L 0.09375 -2.296875 L 0.359375 -2.296875 L 1.359375 -0.21875 L 2.359375 -2.296875 Z M 2.671875 -2.296875 "/></g></g></g><g fill="#ffa62b" fill-opacity="1"><g transform="translate(60.485814, 51.797792)"><g><path d="M 0.140625 -0.859375 C 0.0976562 -1.015625 0.0859375 -1.164062 0.109375 -1.3125 C 0.128906 -1.46875 0.175781 -1.609375 0.25 -1.734375 C 0.332031 -1.867188 0.429688 -1.984375 0.546875 -2.078125 C 0.671875 -2.171875 0.8125 -2.238281 0.96875 -2.28125 C 1.070312 -2.3125 1.179688 -2.320312 1.296875 -2.3125 C 1.410156 -2.3125 1.519531 -2.296875 1.625 -2.265625 C 1.726562 -2.234375 1.820312 -2.1875 1.90625 -2.125 C 2 -2.0625 2.082031 -1.988281 2.15625 -1.90625 L 2.078125 -1.625 L 2.046875 -1.625 C 1.992188 -1.71875 1.929688 -1.8125 1.859375 -1.90625 C 1.785156 -2 1.703125 -2.078125 1.609375 -2.140625 C 1.515625 -2.203125 1.414062 -2.242188 1.3125 -2.265625 C 1.207031 -2.285156 1.09375 -2.28125 0.96875 -2.25 C 0.863281 -2.226562 0.769531 -2.179688 0.6875 -2.109375 C 0.613281 -2.046875 0.550781 -1.972656 0.5 -1.890625 C 0.445312 -1.804688 0.40625 -1.710938 0.375 -1.609375 C 0.34375 -1.515625 0.328125 -1.414062 0.328125 -1.3125 L 0.390625 -1.3125 C 0.523438 -1.3125 0.65625 -1.316406 0.78125 -1.328125 C 0.914062 -1.335938 1.035156 -1.351562 1.140625 -1.375 C 1.265625 -1.394531 1.382812 -1.414062 1.5 -1.4375 L 1.53125 -1.4375 L 1.53125 -1.15625 L 1.5 -1.15625 C 1.382812 -1.175781 1.265625 -1.195312 1.140625 -1.21875 C 1.035156 -1.238281 0.914062 -1.253906 0.78125 -1.265625 C 0.65625 -1.273438 0.523438 -1.28125 0.390625 -1.28125 L 0.328125 -1.28125 C 0.328125 -1.21875 0.328125 -1.15625 0.328125 -1.09375 C 0.335938 -1.03125 0.351562 -0.972656 0.375 -0.921875 C 0.425781 -0.734375 0.503906 -0.578125 0.609375 -0.453125 C 0.710938 -0.328125 0.828125 -0.234375 0.953125 -0.171875 C 1.085938 -0.109375 1.222656 -0.0703125 1.359375 -0.0625 C 1.503906 -0.0625 1.640625 -0.0859375 1.765625 -0.140625 C 1.890625 -0.191406 2 -0.269531 2.09375 -0.375 C 2.1875 -0.488281 2.25 -0.628906 2.28125 -0.796875 L 2.3125 -0.78125 C 2.269531 -0.601562 2.195312 -0.453125 2.09375 -0.328125 C 1.988281 -0.210938 1.863281 -0.125 1.71875 -0.0625 C 1.570312 -0.0078125 1.414062 0.0078125 1.25 0 C 1.09375 0 0.9375 -0.03125 0.78125 -0.09375 C 0.632812 -0.15625 0.503906 -0.25 0.390625 -0.375 C 0.273438 -0.5 0.191406 -0.660156 0.140625 -0.859375 Z M 0.140625 -0.859375 "/></g></g></g><g fill="#ffa62b" fill-opacity="1"><g transform="translate(62.895464, 51.797792)"><g/></g></g><g fill="#ffa62b" fill-opacity="1"><g transform="translate(44.733606, 56.27788)"><g><path d="M 1.046875 0.03125 C 0.929688 0.03125 0.820312 0.015625 0.71875 -0.015625 C 0.625 -0.0546875 0.535156 -0.0976562 0.453125 -0.140625 C 0.367188 -0.191406 0.296875 -0.25 0.234375 -0.3125 C 0.171875 -0.375 0.125 -0.4375 0.09375 -0.5 L 0.171875 -0.78125 L 0.203125 -0.78125 C 0.273438 -0.632812 0.351562 -0.503906 0.4375 -0.390625 C 0.476562 -0.335938 0.519531 -0.285156 0.5625 -0.234375 C 0.601562 -0.191406 0.648438 -0.148438 0.703125 -0.109375 C 0.753906 -0.078125 0.804688 -0.0507812 0.859375 -0.03125 C 0.921875 -0.0078125 0.984375 0 1.046875 0 C 1.078125 0 1.117188 -0.00390625 1.171875 -0.015625 C 1.234375 -0.0351562 1.289062 -0.0625 1.34375 -0.09375 C 1.40625 -0.125 1.457031 -0.164062 1.5 -0.21875 C 1.539062 -0.269531 1.5625 -0.332031 1.5625 -0.40625 C 1.5625 -0.488281 1.539062 -0.5625 1.5 -0.625 C 1.46875 -0.695312 1.421875 -0.757812 1.359375 -0.8125 C 1.296875 -0.863281 1.226562 -0.90625 1.15625 -0.9375 C 1.082031 -0.976562 1.003906 -1.015625 0.921875 -1.046875 C 0.835938 -1.078125 0.753906 -1.113281 0.671875 -1.15625 C 0.597656 -1.195312 0.53125 -1.242188 0.46875 -1.296875 C 0.40625 -1.347656 0.351562 -1.410156 0.3125 -1.484375 C 0.28125 -1.554688 0.265625 -1.640625 0.265625 -1.734375 C 0.265625 -1.828125 0.28125 -1.910156 0.3125 -1.984375 C 0.351562 -2.054688 0.40625 -2.117188 0.46875 -2.171875 C 0.53125 -2.222656 0.597656 -2.257812 0.671875 -2.28125 C 0.753906 -2.3125 0.84375 -2.328125 0.9375 -2.328125 C 1.039062 -2.328125 1.132812 -2.316406 1.21875 -2.296875 C 1.300781 -2.273438 1.375 -2.242188 1.4375 -2.203125 C 1.5 -2.160156 1.550781 -2.113281 1.59375 -2.0625 C 1.632812 -2.007812 1.671875 -1.957031 1.703125 -1.90625 L 1.625 -1.625 L 1.59375 -1.625 C 1.550781 -1.75 1.503906 -1.859375 1.453125 -1.953125 C 1.421875 -1.992188 1.390625 -2.035156 1.359375 -2.078125 C 1.328125 -2.117188 1.289062 -2.15625 1.25 -2.1875 C 1.207031 -2.226562 1.160156 -2.253906 1.109375 -2.265625 C 1.054688 -2.285156 1 -2.296875 0.9375 -2.296875 C 0.894531 -2.296875 0.84375 -2.289062 0.78125 -2.28125 C 0.726562 -2.269531 0.671875 -2.25 0.609375 -2.21875 C 0.554688 -2.1875 0.507812 -2.144531 0.46875 -2.09375 C 0.425781 -2.039062 0.40625 -1.972656 0.40625 -1.890625 C 0.40625 -1.804688 0.421875 -1.734375 0.453125 -1.671875 C 0.492188 -1.609375 0.546875 -1.550781 0.609375 -1.5 C 0.671875 -1.445312 0.738281 -1.398438 0.8125 -1.359375 C 0.894531 -1.316406 0.972656 -1.285156 1.046875 -1.265625 C 1.128906 -1.234375 1.207031 -1.195312 1.28125 -1.15625 C 1.363281 -1.113281 1.4375 -1.0625 1.5 -1 C 1.5625 -0.945312 1.609375 -0.882812 1.640625 -0.8125 C 1.679688 -0.738281 1.703125 -0.65625 1.703125 -0.5625 C 1.703125 -0.476562 1.679688 -0.398438 1.640625 -0.328125 C 1.609375 -0.253906 1.5625 -0.191406 1.5 -0.140625 C 1.445312 -0.0859375 1.378906 -0.046875 1.296875 -0.015625 C 1.210938 0.015625 1.128906 0.03125 1.046875 0.03125 Z M 1.046875 0.03125 "/></g></g></g><g fill="#ffa62b" fill-opacity="1"><g transform="translate(46.536015, 56.27788)"><g><path d="M 1.96875 -2.03125 L 1.9375 -2.03125 C 1.882812 -2.082031 1.835938 -2.125 1.796875 -2.15625 C 1.753906 -2.1875 1.703125 -2.207031 1.640625 -2.21875 C 1.578125 -2.238281 1.503906 -2.253906 1.421875 -2.265625 C 1.347656 -2.273438 1.257812 -2.28125 1.15625 -2.28125 L 1.15625 -0.28125 C 1.15625 -0.226562 1.15625 -0.1875 1.15625 -0.15625 C 1.164062 -0.125 1.171875 -0.0976562 1.171875 -0.078125 C 1.179688 -0.0546875 1.191406 -0.0390625 1.203125 -0.03125 C 1.210938 -0.03125 1.21875 -0.03125 1.21875 -0.03125 L 1.21875 0 L 0.84375 0 L 0.84375 -0.03125 C 0.84375 -0.03125 0.847656 -0.03125 0.859375 -0.03125 C 0.867188 -0.0390625 0.875 -0.0546875 0.875 -0.078125 C 0.882812 -0.0976562 0.894531 -0.125 0.90625 -0.15625 C 0.914062 -0.1875 0.921875 -0.226562 0.921875 -0.28125 L 0.921875 -2.28125 C 0.804688 -2.28125 0.707031 -2.273438 0.625 -2.265625 C 0.550781 -2.253906 0.484375 -2.238281 0.421875 -2.21875 C 0.367188 -2.207031 0.316406 -2.1875 0.265625 -2.15625 C 0.222656 -2.125 0.175781 -2.082031 0.125 -2.03125 L 0.09375 -2.03125 L 0.09375 -2.296875 L 1.96875 -2.296875 Z M 1.96875 -2.03125 "/></g></g></g><g fill="#ffa62b" fill-opacity="1"><g transform="translate(48.604354, 56.27788)"><g><path d="M 0.171875 -2.015625 C 0.171875 -2.078125 0.164062 -2.125 0.15625 -2.15625 C 0.15625 -2.1875 0.148438 -2.207031 0.140625 -2.21875 C 0.128906 -2.238281 0.117188 -2.253906 0.109375 -2.265625 C 0.109375 -2.273438 0.101562 -2.28125 0.09375 -2.28125 L 0.09375 -2.296875 L 0.484375 -2.296875 L 0.484375 -2.28125 C 0.472656 -2.28125 0.460938 -2.273438 0.453125 -2.265625 C 0.453125 -2.253906 0.445312 -2.238281 0.4375 -2.21875 C 0.425781 -2.207031 0.414062 -2.1875 0.40625 -2.15625 C 0.40625 -2.125 0.40625 -2.078125 0.40625 -2.015625 L 0.40625 -0.859375 C 0.40625 -0.703125 0.425781 -0.5625 0.46875 -0.4375 C 0.488281 -0.382812 0.507812 -0.332031 0.53125 -0.28125 C 0.5625 -0.226562 0.597656 -0.179688 0.640625 -0.140625 C 0.691406 -0.109375 0.75 -0.078125 0.8125 -0.046875 C 0.875 -0.0234375 0.945312 -0.015625 1.03125 -0.015625 C 1.113281 -0.015625 1.195312 -0.0234375 1.28125 -0.046875 C 1.375 -0.0664062 1.457031 -0.109375 1.53125 -0.171875 C 1.613281 -0.234375 1.679688 -0.316406 1.734375 -0.421875 C 1.785156 -0.535156 1.8125 -0.679688 1.8125 -0.859375 L 1.8125 -1.765625 C 1.8125 -1.847656 1.804688 -1.921875 1.796875 -1.984375 C 1.785156 -2.046875 1.773438 -2.097656 1.765625 -2.140625 C 1.753906 -2.179688 1.738281 -2.210938 1.71875 -2.234375 C 1.707031 -2.265625 1.695312 -2.28125 1.6875 -2.28125 L 1.6875 -2.296875 L 1.96875 -2.296875 L 1.96875 -2.28125 C 1.957031 -2.28125 1.941406 -2.265625 1.921875 -2.234375 C 1.910156 -2.210938 1.898438 -2.179688 1.890625 -2.140625 C 1.878906 -2.097656 1.867188 -2.046875 1.859375 -1.984375 C 1.847656 -1.921875 1.84375 -1.847656 1.84375 -1.765625 L 1.84375 -0.859375 C 1.84375 -0.722656 1.828125 -0.609375 1.796875 -0.515625 C 1.765625 -0.421875 1.722656 -0.335938 1.671875 -0.265625 C 1.628906 -0.203125 1.578125 -0.148438 1.515625 -0.109375 C 1.453125 -0.078125 1.390625 -0.0507812 1.328125 -0.03125 C 1.273438 -0.0078125 1.222656 0 1.171875 0 C 1.117188 0.0078125 1.078125 0.015625 1.046875 0.015625 C 1.015625 0.015625 0.972656 0.0078125 0.921875 0 C 0.867188 0 0.804688 -0.0078125 0.734375 -0.03125 C 0.671875 -0.0507812 0.601562 -0.0820312 0.53125 -0.125 C 0.46875 -0.164062 0.410156 -0.21875 0.359375 -0.28125 C 0.304688 -0.34375 0.257812 -0.421875 0.21875 -0.515625 C 0.1875 -0.617188 0.171875 -0.734375 0.171875 -0.859375 Z M 0.171875 -2.015625 "/></g></g></g><g fill="#ffa62b" fill-opacity="1"><g transform="translate(50.672693, 56.27788)"><g><path d="M 0.09375 -2.296875 L 0.40625 -2.296875 L 0.40625 -1.953125 C 0.445312 -2.066406 0.515625 -2.15625 0.609375 -2.21875 C 0.703125 -2.28125 0.8125 -2.316406 0.9375 -2.328125 C 1.0625 -2.335938 1.191406 -2.320312 1.328125 -2.28125 C 1.460938 -2.25 1.585938 -2.179688 1.703125 -2.078125 C 1.816406 -1.984375 1.910156 -1.859375 1.984375 -1.703125 C 2.054688 -1.554688 2.09375 -1.375 2.09375 -1.15625 C 2.09375 -0.9375 2.054688 -0.75 1.984375 -0.59375 C 1.910156 -0.445312 1.8125 -0.328125 1.6875 -0.234375 C 1.570312 -0.140625 1.429688 -0.0703125 1.265625 -0.03125 C 1.097656 0.0078125 0.914062 0.03125 0.71875 0.03125 C 0.625 0.03125 0.523438 0.0234375 0.421875 0.015625 C 0.328125 0.00390625 0.226562 0 0.125 0 L 0.09375 0 L 0.09375 -0.03125 C 0.101562 -0.03125 0.109375 -0.03125 0.109375 -0.03125 C 0.117188 -0.0390625 0.128906 -0.0546875 0.140625 -0.078125 C 0.148438 -0.0976562 0.15625 -0.125 0.15625 -0.15625 C 0.164062 -0.1875 0.171875 -0.226562 0.171875 -0.28125 L 0.171875 -2.015625 C 0.171875 -2.078125 0.164062 -2.125 0.15625 -2.15625 C 0.15625 -2.1875 0.148438 -2.207031 0.140625 -2.21875 C 0.128906 -2.238281 0.117188 -2.253906 0.109375 -2.265625 C 0.109375 -2.273438 0.101562 -2.28125 0.09375 -2.28125 Z M 1.859375 -1.15625 C 1.859375 -1.375 1.820312 -1.5625 1.75 -1.71875 C 1.675781 -1.875 1.582031 -1.992188 1.46875 -2.078125 C 1.363281 -2.171875 1.25 -2.226562 1.125 -2.25 C 1 -2.28125 0.882812 -2.28125 0.78125 -2.25 C 0.675781 -2.226562 0.585938 -2.175781 0.515625 -2.09375 C 0.441406 -2.007812 0.40625 -1.898438 0.40625 -1.765625 L 0.40625 -0.015625 C 0.457031 -0.00390625 0.507812 0 0.5625 0 C 0.613281 0 0.664062 0 0.71875 0 C 0.894531 0 1.050781 -0.0234375 1.1875 -0.078125 C 1.332031 -0.128906 1.453125 -0.203125 1.546875 -0.296875 C 1.648438 -0.398438 1.726562 -0.519531 1.78125 -0.65625 C 1.832031 -0.800781 1.859375 -0.96875 1.859375 -1.15625 Z M 1.859375 -1.15625 "/></g></g></g><g fill="#ffa62b" fill-opacity="1"><g transform="translate(52.859221, 56.27788)"><g><path d="M 0.484375 -2.28125 C 0.472656 -2.28125 0.460938 -2.273438 0.453125 -2.265625 C 0.453125 -2.253906 0.445312 -2.238281 0.4375 -2.21875 C 0.425781 -2.207031 0.414062 -2.1875 0.40625 -2.15625 C 0.40625 -2.125 0.40625 -2.078125 0.40625 -2.015625 L 0.40625 -0.28125 C 0.40625 -0.226562 0.40625 -0.1875 0.40625 -0.15625 C 0.414062 -0.125 0.425781 -0.0976562 0.4375 -0.078125 C 0.445312 -0.0546875 0.453125 -0.0390625 0.453125 -0.03125 C 0.460938 -0.03125 0.472656 -0.03125 0.484375 -0.03125 L 0.484375 0 L 0.09375 0 L 0.09375 -0.03125 C 0.101562 -0.03125 0.109375 -0.03125 0.109375 -0.03125 C 0.117188 -0.0390625 0.128906 -0.0546875 0.140625 -0.078125 C 0.148438 -0.0976562 0.15625 -0.125 0.15625 -0.15625 C 0.164062 -0.1875 0.171875 -0.226562 0.171875 -0.28125 L 0.171875 -2.015625 C 0.171875 -2.078125 0.164062 -2.125 0.15625 -2.15625 C 0.15625 -2.1875 0.148438 -2.207031 0.140625 -2.21875 C 0.128906 -2.238281 0.117188 -2.253906 0.109375 -2.265625 C 0.109375 -2.273438 0.101562 -2.28125 0.09375 -2.28125 L 0.09375 -2.296875 L 0.484375 -2.296875 Z M 0.484375 -2.28125 "/></g></g></g><g fill="#ffa62b" fill-opacity="1"><g transform="translate(53.44361, 56.27788)"><g><path d="M 0.140625 -0.859375 C 0.0976562 -1.015625 0.0859375 -1.164062 0.109375 -1.3125 C 0.128906 -1.46875 0.175781 -1.609375 0.25 -1.734375 C 0.332031 -1.867188 0.429688 -1.984375 0.546875 -2.078125 C 0.671875 -2.171875 0.8125 -2.238281 0.96875 -2.28125 C 1.113281 -2.320312 1.265625 -2.332031 1.421875 -2.3125 C 1.578125 -2.289062 1.71875 -2.238281 1.84375 -2.15625 C 1.976562 -2.082031 2.09375 -1.984375 2.1875 -1.859375 C 2.28125 -1.742188 2.347656 -1.609375 2.390625 -1.453125 C 2.429688 -1.296875 2.441406 -1.140625 2.421875 -0.984375 C 2.398438 -0.835938 2.347656 -0.695312 2.265625 -0.5625 C 2.191406 -0.4375 2.09375 -0.328125 1.96875 -0.234375 C 1.851562 -0.140625 1.71875 -0.0703125 1.5625 -0.03125 C 1.40625 0.0078125 1.25 0.0195312 1.09375 0 C 0.945312 -0.0195312 0.804688 -0.0664062 0.671875 -0.140625 C 0.546875 -0.222656 0.4375 -0.320312 0.34375 -0.4375 C 0.25 -0.5625 0.179688 -0.703125 0.140625 -0.859375 Z M 2.15625 -1.390625 C 2.125 -1.515625 2.066406 -1.640625 1.984375 -1.765625 C 1.910156 -1.890625 1.820312 -1.992188 1.71875 -2.078125 C 1.613281 -2.160156 1.5 -2.21875 1.375 -2.25 C 1.25 -2.289062 1.113281 -2.289062 0.96875 -2.25 C 0.832031 -2.21875 0.71875 -2.148438 0.625 -2.046875 C 0.53125 -1.953125 0.457031 -1.84375 0.40625 -1.71875 C 0.351562 -1.59375 0.328125 -1.457031 0.328125 -1.3125 C 0.328125 -1.175781 0.34375 -1.046875 0.375 -0.921875 C 0.40625 -0.785156 0.457031 -0.660156 0.53125 -0.546875 C 0.601562 -0.429688 0.691406 -0.328125 0.796875 -0.234375 C 0.910156 -0.148438 1.03125 -0.0859375 1.15625 -0.046875 C 1.28125 -0.015625 1.414062 -0.0195312 1.5625 -0.0625 C 1.695312 -0.09375 1.8125 -0.15625 1.90625 -0.25 C 2 -0.351562 2.066406 -0.46875 2.109375 -0.59375 C 2.160156 -0.71875 2.1875 -0.847656 2.1875 -0.984375 C 2.195312 -1.128906 2.1875 -1.265625 2.15625 -1.390625 Z M 2.15625 -1.390625 "/></g></g></g><g fill="#ffa62b" fill-opacity="1"><g transform="translate(44.733606, 63.022646)"><g><path d="M 1.09375 -0.09375 C 1.113281 -0.0625 1.128906 -0.03125 1.140625 0 L 0.921875 0 C 0.910156 -0.0078125 0.898438 -0.03125 0.890625 -0.0625 L 0.875 -0.09375 C 0.863281 -0.125 0.847656 -0.164062 0.828125 -0.21875 C 0.796875 -0.289062 0.769531 -0.347656 0.75 -0.390625 C 0.738281 -0.429688 0.71875 -0.46875 0.6875 -0.5 C 0.65625 -0.53125 0.625 -0.550781 0.59375 -0.5625 C 0.5625 -0.5625 0.484375 -0.5625 0.359375 -0.5625 L 0.359375 0 L 0.171875 0 L 0.171875 -1.328125 L 0.25 -1.328125 C 0.28125 -1.328125 0.328125 -1.332031 0.390625 -1.34375 C 0.484375 -1.34375 0.550781 -1.34375 0.59375 -1.34375 C 0.738281 -1.34375 0.847656 -1.3125 0.921875 -1.25 C 1.003906 -1.195312 1.046875 -1.101562 1.046875 -0.96875 C 1.046875 -0.875 1.023438 -0.796875 0.984375 -0.734375 C 0.941406 -0.671875 0.882812 -0.628906 0.8125 -0.609375 C 0.832031 -0.585938 0.851562 -0.554688 0.875 -0.515625 C 0.90625 -0.484375 0.925781 -0.445312 0.9375 -0.40625 C 0.957031 -0.375 0.984375 -0.328125 1.015625 -0.265625 C 1.046875 -0.191406 1.070312 -0.132812 1.09375 -0.09375 Z M 0.359375 -0.703125 C 0.390625 -0.703125 0.460938 -0.703125 0.578125 -0.703125 C 0.660156 -0.703125 0.722656 -0.722656 0.765625 -0.765625 C 0.816406 -0.804688 0.84375 -0.875 0.84375 -0.96875 C 0.84375 -1.019531 0.832031 -1.0625 0.8125 -1.09375 C 0.800781 -1.132812 0.773438 -1.160156 0.734375 -1.171875 C 0.691406 -1.191406 0.632812 -1.203125 0.5625 -1.203125 C 0.476562 -1.203125 0.410156 -1.195312 0.359375 -1.1875 Z M 0.359375 -0.703125 "/></g></g></g><g fill="#ffa62b" fill-opacity="1"><g transform="translate(46.137634, 63.022646)"><g><path d="M 0.9375 -1.328125 L 0.9375 -1.1875 L 0.359375 -1.1875 L 0.359375 -0.765625 L 0.78125 -0.765625 L 0.78125 -0.609375 L 0.359375 -0.609375 L 0.359375 -0.15625 L 1 -0.15625 L 1 0 L 0.171875 0 L 0.171875 -1.328125 Z M 0.9375 -1.328125 "/></g></g></g><g fill="#ffa62b" fill-opacity="1"><g transform="translate(47.410409, 63.022646)"><g><path d="M 0.375 -1.328125 L 0.375 -0.15625 L 0.90625 -0.15625 L 0.90625 0 L 0.171875 0 L 0.171875 -1.328125 Z M 0.375 -1.328125 "/></g></g></g><g fill="#ffa62b" fill-opacity="1"><g transform="translate(48.563307, 63.022646)"><g><path d="M 0.890625 -0.34375 L 0.34375 -0.34375 L 0.21875 0 L 0.015625 0 L 0.53125 -1.34375 L 0.71875 -1.34375 L 1.21875 0 L 1 0 Z M 0.84375 -0.484375 L 0.65625 -1.015625 L 0.625 -1.140625 L 0.59375 -1.015625 L 0.390625 -0.484375 Z M 0.84375 -0.484375 "/></g></g></g><g fill="#ffa62b" fill-opacity="1"><g transform="translate(50.002336, 63.022646)"><g><path d="M 1.109375 0 L 0.890625 0 L 0.5625 -0.546875 L 0.484375 -0.390625 L 0.25 0 L 0.03125 0 L 0.453125 -0.6875 L 0.046875 -1.328125 L 0.265625 -1.34375 L 0.484375 -0.984375 L 0.578125 -0.8125 L 0.890625 -1.328125 L 1.109375 -1.328125 L 0.6875 -0.65625 Z M 1.109375 0 "/></g></g></g><g fill="#ffa62b" fill-opacity="1"><g transform="translate(51.359987, 63.022646)"><g/></g></g><g fill="#ffa62b" fill-opacity="1"><g transform="translate(52.141001, 63.022646)"><g><path d="M 1.0625 -0.15625 C 1.09375 -0.132812 1.117188 -0.117188 1.140625 -0.109375 C 1.171875 -0.109375 1.207031 -0.101562 1.25 -0.09375 L 1.25 0 C 1.21875 0.0078125 1.1875 0.015625 1.15625 0.015625 C 1.113281 0.015625 1.070312 0.0078125 1.03125 0 C 1 -0.0078125 0.96875 -0.03125 0.9375 -0.0625 C 0.894531 -0.0390625 0.847656 -0.0195312 0.796875 0 C 0.753906 0.0078125 0.707031 0.015625 0.65625 0.015625 C 0.550781 0.015625 0.457031 0.00390625 0.375 -0.015625 C 0.300781 -0.046875 0.238281 -0.0859375 0.1875 -0.140625 C 0.144531 -0.203125 0.125 -0.269531 0.125 -0.34375 C 0.125 -0.425781 0.148438 -0.492188 0.203125 -0.546875 C 0.253906 -0.597656 0.320312 -0.644531 0.40625 -0.6875 C 0.351562 -0.75 0.3125 -0.804688 0.28125 -0.859375 C 0.257812 -0.921875 0.25 -0.984375 0.25 -1.046875 C 0.25 -1.109375 0.265625 -1.160156 0.296875 -1.203125 C 0.328125 -1.253906 0.367188 -1.289062 0.421875 -1.3125 C 0.472656 -1.34375 0.535156 -1.359375 0.609375 -1.359375 C 0.679688 -1.359375 0.738281 -1.34375 0.78125 -1.3125 C 0.832031 -1.28125 0.867188 -1.242188 0.890625 -1.203125 C 0.921875 -1.160156 0.9375 -1.109375 0.9375 -1.046875 C 0.9375 -0.984375 0.925781 -0.925781 0.90625 -0.875 C 0.882812 -0.820312 0.851562 -0.773438 0.8125 -0.734375 C 0.769531 -0.703125 0.710938 -0.671875 0.640625 -0.640625 C 0.679688 -0.585938 0.734375 -0.519531 0.796875 -0.4375 C 0.859375 -0.363281 0.910156 -0.304688 0.953125 -0.265625 C 0.992188 -0.304688 1.015625 -0.367188 1.015625 -0.453125 C 1.015625 -0.503906 1.003906 -0.566406 0.984375 -0.640625 L 1.15625 -0.640625 C 1.175781 -0.578125 1.1875 -0.515625 1.1875 -0.453125 C 1.1875 -0.328125 1.144531 -0.226562 1.0625 -0.15625 Z M 0.609375 -1.21875 C 0.554688 -1.21875 0.515625 -1.203125 0.484375 -1.171875 C 0.453125 -1.148438 0.4375 -1.109375 0.4375 -1.046875 C 0.4375 -1.015625 0.4375 -0.984375 0.4375 -0.953125 C 0.445312 -0.929688 0.457031 -0.910156 0.46875 -0.890625 C 0.488281 -0.867188 0.507812 -0.835938 0.53125 -0.796875 C 0.550781 -0.773438 0.5625 -0.757812 0.5625 -0.75 C 0.632812 -0.78125 0.6875 -0.816406 0.71875 -0.859375 C 0.757812 -0.910156 0.78125 -0.972656 0.78125 -1.046875 C 0.78125 -1.078125 0.773438 -1.101562 0.765625 -1.125 C 0.753906 -1.15625 0.734375 -1.175781 0.703125 -1.1875 C 0.679688 -1.207031 0.648438 -1.21875 0.609375 -1.21875 Z M 0.640625 -0.125 C 0.671875 -0.125 0.695312 -0.125 0.71875 -0.125 C 0.75 -0.132812 0.78125 -0.144531 0.8125 -0.15625 C 0.769531 -0.207031 0.71875 -0.269531 0.65625 -0.34375 C 0.59375 -0.425781 0.535156 -0.503906 0.484375 -0.578125 C 0.429688 -0.546875 0.390625 -0.507812 0.359375 -0.46875 C 0.328125 -0.4375 0.3125 -0.394531 0.3125 -0.34375 C 0.3125 -0.3125 0.320312 -0.273438 0.34375 -0.234375 C 0.363281 -0.203125 0.398438 -0.175781 0.453125 -0.15625 C 0.503906 -0.132812 0.566406 -0.125 0.640625 -0.125 Z M 0.640625 -0.125 "/></g></g></g><g fill="#ffa62b" fill-opacity="1"><g transform="translate(53.689407, 63.022646)"><g/></g></g><g fill="#ffa62b" fill-opacity="1"><g transform="translate(54.470422, 63.022646)"><g><path d="M 0.703125 -1.34375 C 0.773438 -1.34375 0.835938 -1.335938 0.890625 -1.328125 C 0.941406 -1.328125 0.988281 -1.320312 1.03125 -1.3125 L 1.046875 -1.296875 L 1.015625 -1.125 C 0.992188 -1.132812 0.972656 -1.144531 0.953125 -1.15625 C 0.941406 -1.164062 0.910156 -1.171875 0.859375 -1.171875 C 0.816406 -1.179688 0.769531 -1.1875 0.71875 -1.1875 C 0.625 -1.1875 0.539062 -1.164062 0.46875 -1.125 C 0.40625 -1.082031 0.359375 -1.019531 0.328125 -0.9375 C 0.296875 -0.863281 0.28125 -0.773438 0.28125 -0.671875 C 0.28125 -0.566406 0.296875 -0.472656 0.328125 -0.390625 C 0.359375 -0.316406 0.40625 -0.253906 0.46875 -0.203125 C 0.539062 -0.160156 0.625 -0.140625 0.71875 -0.140625 C 0.757812 -0.140625 0.800781 -0.140625 0.84375 -0.140625 C 0.894531 -0.148438 0.9375 -0.160156 0.96875 -0.171875 C 1 -0.191406 1.023438 -0.207031 1.046875 -0.21875 L 1.046875 -0.0625 C 1.003906 -0.0390625 0.96875 -0.0234375 0.9375 -0.015625 C 0.914062 -0.00390625 0.882812 0 0.84375 0 C 0.800781 0.0078125 0.753906 0.015625 0.703125 0.015625 C 0.578125 0.015625 0.46875 -0.0078125 0.375 -0.0625 C 0.28125 -0.125 0.207031 -0.203125 0.15625 -0.296875 C 0.101562 -0.398438 0.078125 -0.519531 0.078125 -0.65625 C 0.078125 -0.800781 0.101562 -0.925781 0.15625 -1.03125 C 0.21875 -1.132812 0.296875 -1.210938 0.390625 -1.265625 C 0.484375 -1.316406 0.585938 -1.34375 0.703125 -1.34375 Z M 0.703125 -1.34375 "/></g></g></g><g fill="#ffa62b" fill-opacity="1"><g transform="translate(55.827198, 63.022646)"><g><path d="M 0.359375 -1.328125 L 0.359375 -0.75 L 1 -0.75 L 1 -1.328125 L 1.1875 -1.328125 L 1.1875 0 L 1 0 L 1 -0.59375 L 0.359375 -0.59375 L 0.359375 0 L 0.171875 0 L 0.171875 -1.328125 Z M 0.359375 -1.328125 "/></g></g></g><g fill="#ffa62b" fill-opacity="1"><g transform="translate(57.393105, 63.022646)"><g><path d="M 0.375 -1.328125 L 0.375 0 L 0.1875 0 L 0.1875 -1.328125 Z M 0.375 -1.328125 "/></g></g></g><g fill="#ffa62b" fill-opacity="1"><g transform="translate(58.160994, 63.022646)"><g><path d="M 0.375 -1.328125 L 0.375 -0.15625 L 0.90625 -0.15625 L 0.90625 0 L 0.171875 0 L 0.171875 -1.328125 Z M 0.375 -1.328125 "/></g></g></g><g fill="#ffa62b" fill-opacity="1"><g transform="translate(59.313891, 63.022646)"><g><path d="M 0.375 -1.328125 L 0.375 -0.15625 L 0.90625 -0.15625 L 0.90625 0 L 0.171875 0 L 0.171875 -1.328125 Z M 0.375 -1.328125 "/></g></g></g></svg>